<svg width="528" height="332" viewBox="0 0 528 332" fill="none" xmlns="http://www.w3.org/2000/svg">
<g clip-path="url(#clip0_65_32)">
<path opacity="0.2" d="M62.7718 289.973C207.736 290.797 352.7 291.621 497.664 292.454C510.18 292.454 514.77 272.656 509.85 261.154C504.939 249.652 494.632 241.291 488.64 230.312C481.685 217.564 481.218 201.484 487.421 188.352C491.352 180.019 497.692 173.013 501.751 164.744C513.918 139.927 499.799 105.944 473.614 97.0516C449.096 88.7182 422.544 100.77 400.637 114.57C378.73 128.37 356.539 144.799 330.674 146.09C318.012 146.722 304.452 143.041 296.224 133.389C287.42 123.068 286.228 108.077 278.321 97.0607C269.7 85.0461 254.124 79.579 239.336 79.6431C224.549 79.7072 210.228 84.5149 196.311 89.5149C180.405 95.2292 164.316 101.411 151.095 111.942C143.555 117.94 136.757 125.998 135.914 135.596C134.548 151.191 149.107 164.945 147.54 180.522C146.807 187.784 142.602 194.231 137.929 199.845C129.115 210.403 116.6 219.661 102.902 218.416C90.2401 217.262 80.2716 207.638 70.8529 199.094C61.8739 190.953 52.1162 183.169 40.5627 179.506C37.5208 178.544 16.6219 173.425 6.36021 185.284C-0.639705 193.361 1.08279 205.009 1.50425 207.867C3.08015 218.572 9.35625 225.751 11.94 228.737C24.1257 242.775 41.149 263.672 62.7718 289.973Z" fill="#A6CAFC"/>
<path opacity="0.2" d="M230.696 327.812C259.301 327.812 282.49 326.164 282.49 324.131C282.49 322.097 259.301 320.449 230.696 320.449C202.091 320.449 178.902 322.097 178.902 324.131C178.902 326.164 202.091 327.812 230.696 327.812Z" fill="#A6CAFC"/>
<path opacity="0.2" d="M158.37 330C186.975 330 210.164 328.352 210.164 326.319C210.164 324.286 186.975 322.638 158.37 322.638C129.765 322.638 106.576 324.286 106.576 326.319C106.576 328.352 129.765 330 158.37 330Z" fill="#A6CAFC"/>
<path d="M212.83 315.532C212.693 317.555 212.629 317.977 212.317 318.453C211.694 319.414 210.604 319.79 209.431 320.193C207.636 320.806 206.93 320.513 206.389 321.136C206.023 321.566 205.721 322.418 206.353 324.332C210.989 324.14 215.616 323.947 220.252 323.755C220.252 323.682 220.252 320.641 220.252 320.577C220.252 319.863 220.252 311.026 220.252 310.293C219.125 310.651 213.71 313.032 213.023 312.116C212.977 313.096 212.913 314.24 212.83 315.532Z" fill="#5F88D2"/>
<path d="M231.722 320.312C232.171 319.249 233.243 318.59 234.324 318.169C235.671 317.638 237.146 317.372 238.585 317.537C240.023 317.702 241.434 318.325 242.433 319.368C241.361 317.372 240.344 315.229 239.428 312.931C239.318 312.647 239.208 312.363 239.098 312.079C238.887 312.189 238.704 312.235 238.603 312.262C237.494 312.5 236.963 311.63 235.314 311.832C234.068 311.914 233.014 312.235 232.217 312.564C232.153 313.013 232.07 313.636 231.997 314.387C231.997 314.387 231.915 315.303 231.851 316.328C231.704 318.746 231.438 321.264 231.759 323.673C235.515 323.526 239.263 323.041 242.928 322.216C242.983 321.182 242.946 320.147 242.809 319.121C242.772 318.847 242.726 318.563 242.552 318.352C242.36 318.123 242.057 318.022 241.764 317.94C240.097 317.473 238.365 317.143 236.633 317.244C235.543 317.308 234.453 317.546 233.463 318.013C232.235 318.599 231.722 318.956 231.722 320.312Z" fill="#5F88D2"/>
<path d="M433.904 289.991H278.77V123.965C278.77 121.694 280.611 119.854 282.883 119.854H429.79C432.062 119.854 433.904 121.694 433.904 123.965V289.991Z" fill="#203765"/>
<path d="M373.764 292.015H218.621V123.434C218.621 121.163 220.463 119.322 222.735 119.322H369.651C371.923 119.322 373.764 121.163 373.764 123.434V292.015Z" fill="#5F88D2"/>
<path d="M347.908 119.322H369.174C371.712 119.322 373.773 121.383 373.773 123.919V136.593H347.917V119.322H347.908Z" stroke="#FDE1F1" stroke-miterlimit="10"/>
<path d="M347.908 119.322H322.053V136.593H347.908V119.322Z" stroke="#FDE1F1" stroke-miterlimit="10"/>
<path d="M322.053 119.322H296.197V136.593H322.053V119.322Z" stroke="#FDE1F1" stroke-miterlimit="10"/>
<path d="M296.198 119.322H270.342V136.593H296.198V119.322Z" stroke="#FDE1F1" stroke-miterlimit="10"/>
<path d="M270.342 119.322H244.486V136.593H270.342V119.322Z" stroke="#FDE1F1" stroke-miterlimit="10"/>
<path d="M222.717 119.322H244.487V136.593H218.631V123.416C218.622 121.154 220.454 119.322 222.717 119.322Z" stroke="#FDE1F1" stroke-miterlimit="10"/>
<path d="M373.764 136.594H347.908V153.865H373.764V136.594Z" stroke="#FDE1F1" stroke-miterlimit="10"/>
<path d="M347.908 136.594H322.053V153.865H347.908V136.594Z" stroke="#FDE1F1" stroke-miterlimit="10"/>
<path d="M322.053 136.594H296.197V153.865H322.053V136.594Z" stroke="#FDE1F1" stroke-miterlimit="10"/>
<path d="M296.198 136.594H270.342V153.865H296.198V136.594Z" stroke="#FDE1F1" stroke-miterlimit="10"/>
<path d="M270.342 136.594H244.486V153.865H270.342V136.594Z" stroke="#FDE1F1" stroke-miterlimit="10"/>
<path d="M244.477 136.594H218.621V153.865H244.477V136.594Z" stroke="#FDE1F1" stroke-miterlimit="10"/>
<path d="M373.764 153.864H347.908V171.135H373.764V153.864Z" stroke="#FDE1F1" stroke-miterlimit="10"/>
<path d="M347.908 153.864H322.053V171.135H347.908V153.864Z" stroke="#FDE1F1" stroke-miterlimit="10"/>
<path d="M322.053 153.864H296.197V171.135H322.053V153.864Z" stroke="#FDE1F1" stroke-miterlimit="10"/>
<path d="M296.198 153.864H270.342V171.135H296.198V153.864Z" stroke="#FDE1F1" stroke-miterlimit="10"/>
<path d="M270.342 153.864H244.486V171.135H270.342V153.864Z" stroke="#FDE1F1" stroke-miterlimit="10"/>
<path d="M244.477 153.864H218.621V171.135H244.477V153.864Z" stroke="#FDE1F1" stroke-miterlimit="10"/>
<path d="M373.764 171.136H347.908V188.407H373.764V171.136Z" stroke="#FDE1F1" stroke-miterlimit="10"/>
<path d="M347.908 171.136H322.053V188.407H347.908V171.136Z" stroke="#FDE1F1" stroke-miterlimit="10"/>
<path d="M322.053 171.136H296.197V188.407H322.053V171.136Z" stroke="#FDE1F1" stroke-miterlimit="10"/>
<path d="M296.198 171.136H270.342V188.407H296.198V171.136Z" stroke="#FDE1F1" stroke-miterlimit="10"/>
<path d="M270.342 171.136H244.486V188.407H270.342V171.136Z" stroke="#FDE1F1" stroke-miterlimit="10"/>
<path d="M244.477 171.136H218.621V188.407H244.477V171.136Z" stroke="#FDE1F1" stroke-miterlimit="10"/>
<path d="M373.764 188.407H347.908V205.678H373.764V188.407Z" stroke="#FDE1F1" stroke-miterlimit="10"/>
<path d="M347.908 188.407H322.053V205.678H347.908V188.407Z" stroke="#FDE1F1" stroke-miterlimit="10"/>
<path d="M322.053 188.407H296.197V205.678H322.053V188.407Z" stroke="#FDE1F1" stroke-miterlimit="10"/>
<path d="M296.198 188.407H270.342V205.678H296.198V188.407Z" stroke="#FDE1F1" stroke-miterlimit="10"/>
<path d="M270.342 188.407H244.486V205.678H270.342V188.407Z" stroke="#FDE1F1" stroke-miterlimit="10"/>
<path d="M244.477 188.407H218.621V205.678H244.477V188.407Z" stroke="#FDE1F1" stroke-miterlimit="10"/>
<path d="M373.764 205.668H347.908V222.94H373.764V205.668Z" stroke="#FDE1F1" stroke-miterlimit="10"/>
<path d="M347.908 205.668H322.053V222.94H347.908V205.668Z" stroke="#FDE1F1" stroke-miterlimit="10"/>
<path d="M322.053 205.668H296.197V222.94H322.053V205.668Z" stroke="#FDE1F1" stroke-miterlimit="10"/>
<path d="M296.198 205.668H270.342V222.94H296.198V205.668Z" stroke="#FDE1F1" stroke-miterlimit="10"/>
<path d="M270.342 205.668H244.486V222.94H270.342V205.668Z" stroke="#FDE1F1" stroke-miterlimit="10"/>
<path d="M244.477 205.668H218.621V222.94H244.477V205.668Z" stroke="#FDE1F1" stroke-miterlimit="10"/>
<path d="M373.764 222.939H347.908V240.21H373.764V222.939Z" stroke="#FDE1F1" stroke-miterlimit="10"/>
<path d="M347.908 222.939H322.053V240.21H347.908V222.939Z" stroke="#FDE1F1" stroke-miterlimit="10"/>
<path d="M322.053 222.939H296.197V240.21H322.053V222.939Z" stroke="#FDE1F1" stroke-miterlimit="10"/>
<path d="M296.198 222.939H270.342V240.21H296.198V222.939Z" stroke="#FDE1F1" stroke-miterlimit="10"/>
<path d="M270.342 222.939H244.486V240.21H270.342V222.939Z" stroke="#FDE1F1" stroke-miterlimit="10"/>
<path d="M244.477 222.939H218.621V240.21H244.477V222.939Z" stroke="#FDE1F1" stroke-miterlimit="10"/>
<path d="M373.764 240.21H347.908V257.482H373.764V240.21Z" stroke="#FDE1F1" stroke-miterlimit="10"/>
<path d="M347.908 240.21H322.053V257.482H347.908V240.21Z" stroke="#FDE1F1" stroke-miterlimit="10"/>
<path d="M322.053 240.21H296.197V257.482H322.053V240.21Z" stroke="#FDE1F1" stroke-miterlimit="10"/>
<path d="M296.198 240.21H270.342V257.482H296.198V240.21Z" stroke="#FDE1F1" stroke-miterlimit="10"/>
<path d="M270.342 240.21H244.486V257.482H270.342V240.21Z" stroke="#FDE1F1" stroke-miterlimit="10"/>
<path d="M244.477 240.21H218.621V257.482H244.477V240.21Z" stroke="#FDE1F1" stroke-miterlimit="10"/>
<path d="M373.764 257.481H347.908V274.752H373.764V257.481Z" stroke="#FDE1F1" stroke-miterlimit="10"/>
<path d="M347.908 257.481H322.053V274.752H347.908V257.481Z" stroke="#FDE1F1" stroke-miterlimit="10"/>
<path d="M322.053 257.481H296.197V274.752H322.053V257.481Z" stroke="#FDE1F1" stroke-miterlimit="10"/>
<path d="M296.198 257.481H270.342V274.752H296.198V257.481Z" stroke="#FDE1F1" stroke-miterlimit="10"/>
<path d="M270.342 257.481H244.486V274.752H270.342V257.481Z" stroke="#FDE1F1" stroke-miterlimit="10"/>
<path d="M244.477 257.481H218.621V274.752H244.477V257.481Z" stroke="#FDE1F1" stroke-miterlimit="10"/>
<path d="M373.764 274.752H347.908V292.024H373.764V274.752Z" stroke="#FDE1F1" stroke-miterlimit="10"/>
<path d="M347.908 274.752H322.053V292.024H347.908V274.752Z" stroke="#FDE1F1" stroke-miterlimit="10"/>
<path d="M322.053 274.752H296.197V292.024H322.053V274.752Z" stroke="#FDE1F1" stroke-miterlimit="10"/>
<path d="M296.198 274.752H270.342V292.024H296.198V274.752Z" stroke="#FDE1F1" stroke-miterlimit="10"/>
<path d="M270.342 274.752H244.486V292.024H270.342V274.752Z" stroke="#FDE1F1" stroke-miterlimit="10"/>
<path d="M244.477 274.752H218.621V292.024H244.477V274.752Z" stroke="#FDE1F1" stroke-miterlimit="10"/>
<path d="M115.646 258.013H66.3172C50.5216 258.013 37.6762 245.174 37.6762 229.387C37.6762 213.608 50.5216 200.76 66.3172 200.76H91.0735C100.3 200.76 107.785 193.288 107.785 184.066C107.785 174.845 100.309 167.372 91.0735 167.372H66.3172C32.0965 167.372 4.26172 195.193 4.26172 229.396C4.26172 263.59 32.0965 291.42 66.3172 291.42H115.637C117.204 291.42 118.743 291.566 120.237 291.841C132.688 291.566 145.149 291.291 157.6 291.026C157.509 288.187 156.794 276.658 147.604 267.445C134.869 254.652 117.204 257.72 115.646 258.013Z" fill="url(#paint0_linear_65_32)"/>
<path d="M331.481 167.472L191.455 167.372C177.308 167.372 165.801 155.87 165.801 141.731V92.5365C165.801 76.7581 178.646 63.9101 194.442 63.9101C210.228 63.9101 223.083 76.749 223.083 92.5365V117.28C223.083 117.665 223.092 118.04 223.119 118.416L256.46 118.324C256.479 117.976 256.488 117.637 256.488 117.28V92.5365C256.488 58.3332 228.653 30.5127 194.432 30.5127C160.221 30.5127 132.377 58.3332 132.377 92.5365V141.731C132.377 174.286 158.874 200.769 191.436 200.769L331.471 200.87C347.258 200.87 360.112 213.718 360.112 229.496C360.112 245.284 347.267 258.123 331.471 258.123H282.252C264.395 258.251 246.538 258.379 228.672 258.507C228.745 269.615 228.827 280.723 228.901 291.841H278.23C279.54 291.63 280.878 291.52 282.243 291.52H331.462C365.674 291.52 393.518 263.7 393.518 229.496C393.518 195.293 365.683 167.472 331.481 167.472Z" fill="url(#paint1_linear_65_32)"/>
<path d="M458.733 304.341H349.438V193.865C349.438 191.594 351.279 189.753 353.551 189.753H454.619C456.892 189.753 458.733 191.594 458.733 193.865V304.341V304.341Z" fill="#FC6964"/>
<path d="M433.905 304.341H321.943V193.865C321.943 191.594 323.785 189.753 326.057 189.753H429.791C432.064 189.753 433.905 191.594 433.905 193.865V304.341Z" fill="#B3D2F8"/>
<path d="M143.565 291.557H76.4975C75.0315 291.557 73.8496 290.376 73.8496 288.911V245.971H143.574V291.557H143.565Z" fill="#FBDDD0"/>
<path d="M186.252 287.821C172.032 289.176 157.821 290.54 143.602 291.896V246.31C157.95 246.63 172.298 246.96 186.646 247.28C186.517 260.797 186.389 274.304 186.252 287.821Z" fill="#FC6964"/>
<path d="M186.69 169.221C187.222 170.403 188.184 171.438 188.294 172.72C188.376 173.626 188.01 174.524 187.515 175.293C186.974 176.126 186.214 176.877 185.261 177.17C184.308 177.454 183.135 177.17 182.604 176.328C182.256 175.769 182.228 175.082 182.201 174.423C182.146 172.839 182.1 171.264 182.045 169.679C182.036 169.487 182.036 169.286 182.109 169.112C182.173 168.956 182.302 168.837 182.43 168.718C183.062 168.113 183.694 167.509 184.327 166.905C184.757 166.493 185.747 165.339 186.379 165.467C186.214 166.786 186.122 167.967 186.69 169.221Z" fill="black"/>
<path d="M186.095 249.432C171.876 250.788 157.665 252.152 143.445 253.507V207.921C157.793 208.242 172.141 208.572 186.489 208.892C186.361 222.409 186.233 235.925 186.095 249.432Z" fill="#FC6964"/>
<path d="M147.852 249.918C146.899 251.841 144.893 252.986 142.84 252.793C140.055 252.537 138.782 249.982 138.727 249.863C138.04 251.63 136.381 252.821 134.521 252.894C132.515 252.977 130.655 251.731 129.922 249.808C129.885 249.927 129.006 252.317 126.697 252.793C124.69 253.206 122.482 251.969 121.621 249.762C120.732 251.612 118.909 252.839 116.902 252.94C114.676 253.05 112.559 251.768 111.588 249.698C110.892 251.63 109.142 252.967 107.154 253.086C104.946 253.224 102.848 251.814 102.087 249.643C101.601 251.676 99.9431 253.178 98.0007 253.38C95.7102 253.618 93.4563 252.024 92.8699 249.588C92.2469 251.695 90.3778 253.178 88.243 253.279C85.925 253.389 83.781 251.832 83.1213 249.524C82.3792 251.621 80.4002 253.05 78.1921 253.077C75.9107 253.105 73.8492 251.649 73.1071 249.469C72.1909 251.356 70.3126 252.601 68.2511 252.684C65.9972 252.775 63.8807 251.484 62.9004 249.405C71.6869 235.559 80.4643 221.713 89.2508 207.867C115.849 208.206 142.437 208.544 169.035 208.883C161.971 222.574 154.907 236.246 147.852 249.918Z" fill="#B3D2F8"/>
<path d="M324.801 190.385H350.006V206.603H322.07V192.876C322.07 191.502 323.298 190.385 324.801 190.385Z" stroke="white" stroke-miterlimit="10"/>
<path d="M377.951 190.385H350.016V206.603H377.951V190.385Z" stroke="white" stroke-miterlimit="10"/>
<path d="M405.887 190.385H377.951V206.603H405.887V190.385Z" stroke="white" stroke-miterlimit="10"/>
<path d="M405.887 190.385H430.799C432.466 190.385 433.822 191.621 433.822 193.141V206.594H405.887V190.385Z" stroke="white" stroke-miterlimit="10"/>
<path d="M350.006 206.603H322.07V222.82H350.006V206.603Z" stroke="white" stroke-miterlimit="10"/>
<path d="M377.951 206.603H350.016V222.82H377.951V206.603Z" stroke="white" stroke-miterlimit="10"/>
<path d="M405.887 206.603H377.951V222.82H405.887V206.603Z" stroke="white" stroke-miterlimit="10"/>
<path d="M433.822 206.603H405.887V222.82H433.822V206.603Z" stroke="white" stroke-miterlimit="10"/>
<path d="M350.006 222.812H322.07V239.029H350.006V222.812Z" stroke="white" stroke-miterlimit="10"/>
<path d="M377.951 222.812H350.016V239.029H377.951V222.812Z" stroke="white" stroke-miterlimit="10"/>
<path d="M405.887 222.812H377.951V239.029H405.887V222.812Z" stroke="white" stroke-miterlimit="10"/>
<path d="M433.822 222.812H405.887V239.029H433.822V222.812Z" stroke="white" stroke-miterlimit="10"/>
<path d="M350.006 239.029H322.07V255.247H350.006V239.029Z" stroke="white" stroke-miterlimit="10"/>
<path d="M377.951 239.029H350.016V255.247H377.951V239.029Z" stroke="white" stroke-miterlimit="10"/>
<path d="M405.887 239.029H377.951V255.247H405.887V239.029Z" stroke="white" stroke-miterlimit="10"/>
<path d="M433.822 239.029H405.887V255.247H433.822V239.029Z" stroke="white" stroke-miterlimit="10"/>
<path d="M350.006 255.248H322.07V271.466H350.006V255.248Z" stroke="white" stroke-miterlimit="10"/>
<path d="M377.951 255.248H350.016V271.466H377.951V255.248Z" stroke="white" stroke-miterlimit="10"/>
<path d="M405.887 255.248H377.951V271.466H405.887V255.248Z" stroke="white" stroke-miterlimit="10"/>
<path d="M433.822 255.248H405.887V271.466H433.822V255.248Z" stroke="white" stroke-miterlimit="10"/>
<path d="M350.006 271.456H322.07V287.674H350.006V271.456Z" stroke="white" stroke-miterlimit="10"/>
<path d="M377.951 271.456H350.016V287.674H377.951V271.456Z" stroke="white" stroke-miterlimit="10"/>
<path d="M405.887 271.456H377.951V287.674H405.887V271.456Z" stroke="white" stroke-miterlimit="10"/>
<path d="M433.822 271.456H405.887V287.674H433.822V271.456Z" stroke="white" stroke-miterlimit="10"/>
<path d="M350.006 287.674H322.07V303.892H350.006V287.674Z" stroke="white" stroke-miterlimit="10"/>
<path d="M377.951 287.674H350.016V303.892H377.951V287.674Z" stroke="white" stroke-miterlimit="10"/>
<path d="M405.887 287.674H377.951V303.892H405.887V287.674Z" stroke="white" stroke-miterlimit="10"/>
<path d="M433.822 287.674H405.887V303.892H433.822V287.674Z" stroke="white" stroke-miterlimit="10"/>
<path d="M73.2441 249.525L97.6614 208.572" stroke="#F7F1FD" stroke-miterlimit="10" stroke-linecap="round"/>
<path d="M83.0391 249.579L107.456 208.627" stroke="#F7F1FD" stroke-miterlimit="10" stroke-linecap="round"/>
<path d="M92.832 249.634L117.24 208.682" stroke="#F7F1FD" stroke-miterlimit="10" stroke-linecap="round"/>
<path d="M102.627 249.689L127.035 208.737" stroke="#F7F1FD" stroke-miterlimit="10" stroke-linecap="round"/>
<path d="M111.652 250.028L136.07 209.084" stroke="#F7F1FD" stroke-miterlimit="10" stroke-linecap="round"/>
<path d="M121.914 250.211L146.331 209.259" stroke="#F7F1FD" stroke-miterlimit="10" stroke-linecap="round"/>
<path d="M130.334 249.405L154.742 208.462" stroke="#F7F1FD" stroke-miterlimit="10" stroke-linecap="round"/>
<path d="M139.111 249.551L163.519 208.599" stroke="#F7F1FD" stroke-miterlimit="10" stroke-linecap="round"/>
<path d="M398.127 306.493C402.322 306.493 405.722 303.094 405.722 298.902C405.722 294.709 402.322 291.31 398.127 291.31C393.932 291.31 390.531 294.709 390.531 298.902C390.531 303.094 393.932 306.493 398.127 306.493Z" fill="white"/>
<path d="M429.525 306.493C434.949 306.493 439.347 302.098 439.347 296.676C439.347 291.255 434.949 286.859 429.525 286.859C424.101 286.859 419.703 291.255 419.703 296.676C419.703 302.098 424.101 306.493 429.525 306.493Z" fill="white"/>
<path d="M434.289 306.493C439.713 306.493 444.111 302.098 444.111 296.676C444.111 291.255 439.713 286.859 434.289 286.859C428.864 286.859 424.467 291.255 424.467 296.676C424.467 302.098 428.864 306.493 434.289 306.493Z" fill="white"/>
<path d="M461.904 306.493C466.099 306.493 469.499 303.094 469.499 298.902C469.499 294.709 466.099 291.31 461.904 291.31C457.709 291.31 454.309 294.709 454.309 298.902C454.309 303.094 457.709 306.493 461.904 306.493Z" fill="white"/>
<path d="M465.588 306.493C469.783 306.493 473.183 303.094 473.183 298.902C473.183 294.709 469.783 291.31 465.588 291.31C461.393 291.31 457.992 294.709 457.992 298.902C457.992 303.094 461.393 306.493 465.588 306.493Z" fill="white"/>
<path d="M492.277 306.493C497.701 306.493 502.099 302.098 502.099 296.676C502.099 291.255 497.701 286.859 492.277 286.859C486.852 286.859 482.455 291.255 482.455 296.676C482.455 302.098 486.852 306.493 492.277 306.493Z" fill="white"/>
<path d="M497.041 306.493C502.465 306.493 506.862 302.098 506.862 296.676C506.862 291.255 502.465 286.859 497.041 286.859C491.616 286.859 487.219 291.255 487.219 296.676C487.219 302.098 491.616 306.493 497.041 306.493Z" fill="white"/>
<path d="M401.81 306.493C406.005 306.493 409.406 303.094 409.406 298.902C409.406 294.709 406.005 291.31 401.81 291.31C397.615 291.31 394.215 294.709 394.215 298.902C394.215 303.094 397.615 306.493 401.81 306.493Z" fill="white"/>
<path d="M381.497 291.52C381.46 285.513 381.424 279.506 381.378 273.498C383.302 272.262 385.226 271.035 387.159 269.799C389.624 269.378 392.088 268.947 394.553 268.526C398.52 261.136 402.487 253.737 406.455 246.346C406.464 246.237 406.61 244.79 407.838 244.149C408.525 243.792 409.194 243.874 409.46 243.92C410.651 243.92 411.851 243.92 413.042 243.92C413.931 242.189 414.811 240.458 415.699 238.718C447.51 238.718 479.312 238.718 511.123 238.718C511.123 258.379 511.123 278.031 511.123 297.693C508.906 297.693 506.689 297.693 504.472 297.693C504.508 296.878 504.582 293.096 501.75 290.193C501.164 289.588 499.524 287.912 496.977 287.638C493.459 287.262 490.353 289.79 488.969 292.409C488.081 294.085 487.943 295.705 487.943 296.667C473.174 296.667 458.404 296.667 443.626 296.667C443.186 292.116 440.437 288.361 436.635 287.125C433.3 286.044 430.368 287.299 429.644 287.638C424.101 290.22 423.533 296.887 423.505 297.18C409.084 297.18 394.663 297.18 380.232 297.189C380.232 295.797 380.232 294.414 380.232 293.022C380.645 292.876 381.057 292.729 381.478 292.583C381.497 292.235 381.497 291.878 381.497 291.52Z" fill="white"/>
<path opacity="0.2121" d="M471.505 267.867C459.045 267.802 446.593 267.738 434.133 267.683C437.367 261.557 440.592 255.431 443.826 249.313H471.505C471.505 255.495 471.505 261.685 471.505 267.867Z" fill="#D6C5DF"/>
<path opacity="0.2121" d="M477.096 267.867C486.514 267.784 495.942 267.702 505.361 267.628C505.169 261.52 504.967 255.412 504.775 249.313H477.096C477.096 255.495 477.096 261.685 477.096 267.867Z" fill="#D6C5DF"/>
<path d="M388.186 270.724C425.668 270.724 463.151 270.724 500.633 270.724" stroke="#B59AC8" stroke-miterlimit="10" stroke-linecap="round"/>
<path opacity="0.2121" d="M397.082 266.969C400.335 261.081 403.578 255.193 406.831 249.313C418.146 249.313 429.461 249.313 440.777 249.313C437.423 255.339 434.07 261.374 430.707 267.4C419.502 267.253 408.297 267.107 397.082 266.969Z" fill="#D6C5DF"/>
<path d="M407.682 246.191C419.162 246.09 430.642 245.98 442.122 245.879Z" fill="white"/>
<path d="M416.753 286.511H384.842C384.109 286.511 383.504 285.916 383.504 285.174V277.491C383.504 276.759 384.099 276.154 384.842 276.154H416.753C417.486 276.154 418.091 276.75 418.091 277.491V285.174C418.091 285.916 417.496 286.511 416.753 286.511Z" fill="white"/>
<path d="M381.679 298.38H421.929C422.717 298.38 423.358 297.739 423.358 296.951V294.076C423.358 293.288 422.717 292.647 421.929 292.647H381.679C380.891 292.647 380.25 293.288 380.25 294.076V296.951C380.25 297.739 380.891 298.38 381.679 298.38Z" fill="white"/>
<path d="M180.571 322.894C180.561 323.151 180.561 323.425 180.635 323.673C180.708 323.911 180.855 324.121 181.001 324.323C182 325.641 183.338 326.685 184.849 327.345C188.001 328.709 191.611 328.288 195.019 327.848C195.349 327.803 195.734 327.729 195.899 327.445C195.972 327.317 196 327.171 196.009 327.015C196.201 325.193 195.688 323.315 194.598 321.841C193.508 320.376 191.858 319.332 190.063 318.984C190.218 316.988 190.145 314.973 189.824 313.004C189.797 312.839 189.76 312.665 189.641 312.555C189.513 312.445 189.33 312.427 189.156 312.418C187.451 312.345 185.756 312.272 184.052 312.198C182.944 312.152 181.395 311.685 180.891 312.94C180.387 314.185 180.726 316.182 180.69 317.51C180.662 319.304 180.616 321.099 180.571 322.894Z" fill="#5F88D2"/>
<path d="M139.46 314.771C139.396 315.678 139.277 316.585 139.121 317.482C139.057 317.839 138.984 318.215 138.782 318.517C138.571 318.828 138.26 319.039 137.939 319.24C136.125 320.348 134.1 321.054 132.167 321.914C130.224 322.784 128.31 323.856 126.99 325.513C128.282 327.372 130.939 328.334 133.202 328.453C135.465 328.572 137.701 327.949 139.854 327.226C141.998 326.502 144.124 325.651 146.359 325.266C146.689 325.211 147.046 325.156 147.303 324.945C147.697 324.634 147.779 324.066 147.825 323.563C148.137 320.202 148.384 316.832 148.567 313.462C145.599 313.956 142.419 314.286 139.46 314.771Z" fill="#5F88D2"/>
<path d="M151.783 261.585C153.936 251.759 155.613 241.786 158.939 232.29C159.049 231.979 159.168 231.649 159.406 231.411C159.809 231.008 160.432 230.971 161 230.916C164.573 230.605 168.018 229.002 170.547 226.466C171.097 225.907 171.637 225.294 172.37 225.019C173.057 224.753 173.827 224.827 174.569 224.909C178.866 225.376 183.163 225.834 187.46 226.301C188.184 226.264 188.899 226.228 189.623 226.2C190.438 233.892 191.254 241.585 192.069 249.268C191.968 255.88 191.895 262.528 191.84 269.195C191.703 284.762 191.675 300.202 191.739 315.495C190.741 315.696 189.595 315.852 188.331 315.889C184.978 315.99 182.22 315.229 180.351 314.524C178.509 292.51 176.658 270.486 174.817 248.471C171.308 257.317 168.586 264.524 166.754 269.479C163.996 276.933 163.813 277.729 161.174 284.689C158.16 292.656 156.978 295.376 154.761 301.585C152.837 306.988 151.416 311.392 150.564 314.131C149.217 315.01 145.241 317.354 140.303 316.539C138.864 316.301 137.655 315.852 136.684 315.376C137.068 314.002 137.655 311.905 138.388 309.359C142.749 294.167 144.792 288.892 147.44 279.14C149.034 273.325 150.5 267.473 151.783 261.585Z" fill="#203765"/>
<path d="M190.192 196.082C190.274 194.241 190.641 192.666 188.341 192.776C186.71 192.849 185.043 193.215 183.403 193.545C184.282 188.307 184.96 183.023 185.427 177.73C185.446 177.529 185.464 177.318 185.427 177.116C185.345 176.649 184.997 176.292 184.658 175.953C184.365 175.66 184.145 175.395 184.016 175.459C183.925 175.505 183.934 175.697 183.934 175.77C183.98 177.565 183.577 179.735 183.778 180.807C183.787 180.871 183.824 181.036 183.751 181.228C183.659 181.475 183.439 181.594 183.403 181.622C182.532 182.355 181.946 183.417 181.781 184.543C181.469 183.774 181.451 182.922 181.359 182.098C181.268 181.274 181.075 180.404 180.507 179.809C179.838 179.104 178.803 178.911 177.887 178.609C176.641 178.197 175.486 177.519 174.524 176.631C174.314 176.43 174.103 176.219 173.966 175.963C173.801 175.67 173.727 175.331 173.681 174.992C173.617 174.507 173.59 174.021 173.617 173.536C173.287 173.472 172.939 173.646 172.71 173.893C172.481 174.14 172.335 174.461 172.197 174.763C172.032 175.138 171.611 175.56 171.776 175.944C172.179 176.906 172.829 177.739 173.416 178.609C175.276 181.375 176.503 184.497 177.713 187.602C178.418 189.415 179.133 191.228 179.838 193.041C179.976 193.398 180.113 193.756 180.26 194.113C176.623 194.708 172.93 195.203 169.302 194.607C168.377 198.948 167.506 203.453 166.709 208.133C165.665 214.278 164.831 220.212 164.189 225.88C170.658 224.058 174.964 224.681 177.759 225.651C180.104 226.466 183.027 228.627 186.499 227.748C187.727 227.437 188.652 226.86 189.248 226.42C189.385 224.333 189.587 221.21 189.825 217.391C190.091 213.224 190.219 211.127 190.256 210.468C190.897 196.86 190.073 198.902 190.192 196.082Z" fill="#FC6964"/>
<path d="M185.297 190.248C184.94 192.171 184.583 194.113 183.877 195.944C183.502 196.924 183.025 197.867 182.805 198.893C182.64 199.635 182.622 200.395 182.595 201.155C182.338 208.966 182.091 216.787 182.1 224.607C182.1 228.233 182.182 231.951 183.474 235.34C184.766 238.728 187.533 241.777 191.106 242.418C190.951 240.541 190.795 238.673 190.648 236.796C190.117 230.385 189.604 223.847 191.06 217.574C190.932 221.768 190.795 225.972 190.666 230.166C193.296 229.094 196.246 230.367 198.793 231.613C200.076 227.748 198.903 223.554 198.83 219.488C198.784 217.226 199.087 214.983 199.087 212.721C199.087 209.781 198.592 206.869 198.097 203.966C196.961 197.281 195.816 190.578 194.057 184.03C193.809 183.096 193.525 182.144 192.893 181.411C192.352 180.788 191.601 180.404 190.868 180.028C189.567 179.36 188.174 178.417 186.782 178.014C186.25 179.744 186.571 182.116 186.342 183.975C186.067 186.091 185.682 188.169 185.297 190.248Z" fill="white"/>
<path d="M175.906 164.79C175.009 165.001 174.01 164.671 173.423 163.957C172.837 163.252 172.69 162.198 173.066 161.356C173.112 161.255 173.167 161.145 173.249 161.072C173.35 160.971 173.497 160.907 173.634 160.871C174.276 160.687 174.999 160.871 175.531 161.273C176.071 161.667 176.447 162.263 176.676 162.894C176.997 162.464 177.024 161.887 177.033 161.347C177.07 159.991 177.098 158.682 177.134 157.327C177.785 157.345 179.177 157.29 180.671 156.484C181.926 155.806 182.677 154.909 183.053 154.387C183.163 154.726 183.309 155.083 183.539 155.431C184.73 157.263 187.029 157.546 187.57 157.601C187.762 156.328 187.323 154.982 186.415 154.076C185.508 153.169 184.162 152.72 182.888 152.913C180.744 151.402 177.748 151.273 175.494 152.61C173.552 153.755 172.315 155.77 171.234 157.739C169.859 160.257 168.522 162.949 166.14 164.561C164.756 165.495 163.079 166.017 161.897 167.189C161.357 167.73 160.954 168.371 160.56 169.021C159.891 170.12 159.24 171.246 158.929 172.491C158.663 173.535 158.645 174.643 158.874 175.697C158.993 176.246 159.277 177.363 160.193 178.224C161.32 179.286 162.795 179.36 163.565 179.405C168.238 179.643 176.291 173.316 176.704 172.995" fill="black"/>
<path d="M173.607 164.351C174.569 164.607 175.577 164.689 176.566 164.589C176.603 165.385 176.639 166.182 176.676 166.979C176.704 167.547 176.768 168.197 177.217 168.545C177.574 168.829 178.069 168.829 178.518 168.819C180.02 168.783 181.532 168.71 183.035 168.581C183.126 168.572 183.227 168.563 183.31 168.591C183.612 168.682 183.667 169.085 183.667 169.406C183.639 171.319 183.649 173.233 183.685 175.138C183.694 175.569 183.804 176.127 184.226 176.2C184.015 177.473 183.969 178.774 184.079 180.056C184.116 180.459 184.171 180.889 184.024 181.274C183.786 181.915 183.09 182.244 182.586 182.702C182.063 183.178 181.724 183.847 181.633 184.543C181.486 183.801 181.34 183.059 181.193 182.318C181.065 181.686 180.909 180.99 180.387 180.605C179.865 180.221 179.159 180.266 178.536 180.12C178.032 180.001 177.565 179.754 177.116 179.515C176.42 179.14 175.714 178.765 175.119 178.252C174.468 177.684 173.973 176.97 173.57 176.21C173.094 175.33 173.13 174.808 173.204 173.81C173.341 171.768 173.442 169.717 173.515 167.675C173.524 167.382 173.735 164.378 173.607 164.351Z" fill="#F8D0E2"/>
<path d="M176.723 167.931C177.429 168.828 178.702 168.938 179.014 168.993C180.315 169.222 181.662 169.139 182.926 168.764C182.981 168.746 183.155 168.865 183.311 168.801C183.677 168.636 183.613 167.812 183.632 167.821C183.641 167.821 183.76 168.874 183.485 170.476C183.192 172.161 183.009 173.187 182.12 173.938C182.019 174.03 180.947 174.9 179.655 174.661C178.739 174.497 178.18 173.801 177.117 172.418C176.403 171.484 175.404 170.165 174.882 168.196C174.698 167.5 174.625 166.997 174.552 165.98C174.433 164.341 174.634 164.066 174.763 163.929C175.056 163.636 175.642 163.444 176.018 163.663C176.907 164.185 175.578 166.466 176.723 167.931Z" fill="#EBBCD5"/>
<path d="M177.071 156.979C177.337 158.874 177.126 160.843 176.457 162.638C176.247 161.915 175.834 161.219 175.165 160.853C174.506 160.486 173.58 160.559 173.104 161.136C172.747 161.576 172.701 162.19 172.71 162.757C172.719 163.151 172.756 163.545 172.902 163.902C173.159 164.525 173.773 164.964 174.442 165.074C175.101 165.184 175.798 164.992 176.347 164.607C176.421 165.367 176.485 166.127 176.558 166.896C176.604 167.391 176.659 167.904 176.915 168.325C177.172 168.746 177.74 169.113 178.198 168.939H184.309C185.226 168.939 186.05 168.197 186.554 167.428C187.186 166.475 187.278 165.266 187.324 164.122C187.415 161.924 187.443 159.717 187.388 157.519C186.682 157.418 185.675 157.171 184.703 156.53C183.952 156.036 183.622 155.578 183.521 155.44C183.247 155.047 183.109 154.662 183.036 154.396C182.578 154.763 182.046 155.129 181.432 155.477C179.802 156.402 178.235 156.796 177.071 156.979Z" fill="#F8D0E2"/>
<path d="M164.556 201.438C164.492 198.462 164.107 196.017 163.777 194.359C162.137 196.356 160.488 198.352 158.573 200.083C158.261 200.367 157.931 200.651 157.757 201.035C157.574 201.42 157.776 201.814 158.051 202.134C161.23 205.861 163.704 210.129 166.828 213.902C163.639 214.314 160.763 216.429 159.434 219.359C155.916 212.94 146.167 208.068 149.09 200.266C151.041 192.473 155.916 186.621 160.79 179.808C162.742 178.837 165.664 178.837 167.662 177.537C169.265 178.627 170.603 179.68 172.197 180.77C172.866 181.228 173.544 181.695 174.029 182.345C174.634 183.16 174.881 184.176 175.111 185.156C175.697 187.693 176.485 189.918 178.29 193.975C179.719 197.189 180.067 196.823 180.58 198.636C181.213 200.87 181.13 202.968 180.58 205.962C179.737 210.541 178.482 213.618 175.12 222.125C172.802 227.986 172.838 227.94 172.701 228.178C169.485 233.508 163.136 235.907 157.253 237.94C158.417 230.321 159.91 224.231 161.111 219.936C162.879 213.563 164.711 208.682 164.556 201.438Z" fill="white"/>
<path d="M192.565 226.814C192.262 229.277 191.438 231.686 190.164 233.819C189.981 234.122 189.825 234.57 190.128 234.754C190.228 234.818 190.347 234.818 190.457 234.808C191.713 234.68 192.097 232.867 193.289 232.437C192.922 234.836 191.905 237.134 190.366 239.012C192.235 240.422 195.093 240.028 196.816 238.444C198.529 236.851 199.171 234.323 198.841 232.006C198.768 231.484 198.639 230.962 198.337 230.532C198.062 230.147 197.668 229.873 197.265 229.634C195.854 228.81 194.223 228.371 192.592 228.389" fill="#F8D0E2"/>
<path d="M181.369 158.49C181.24 158.389 181.085 158.325 180.929 158.279C180.791 158.243 180.654 158.206 180.516 158.206C180.26 158.215 180.031 158.334 179.811 158.453C179.527 158.609 179.252 158.774 178.986 158.948C178.986 158.948 180.507 158.939 180.654 158.939C180.947 158.948 182.028 159.03 181.369 158.49Z" fill="black"/>
<path d="M186.609 158.938C186.408 158.609 186.041 158.398 185.656 158.343C185.271 158.288 184.878 158.398 184.548 158.6C184.364 158.709 184.19 158.856 184.145 159.067C184.254 159.021 184.328 159.039 184.447 159.039C185.134 159.021 185.913 158.957 186.609 158.938Z" fill="black"/>
<path opacity="0.2121" d="M191.594 199.341C191.703 195.477 191.813 191.603 191.923 187.739C192.427 193.078 192.363 198.453 192.299 203.819C192.272 205.907 192.244 208.004 192.125 210.092C192.024 211.851 191.933 212.711 191.859 213.261C191.594 215.349 191.2 217.052 190.879 218.224C191.016 215.926 191.218 212.308 191.374 207.821C191.465 205.01 191.474 203.389 191.594 199.341Z" fill="#D6C5DF"/>
<path d="M179.892 160.467C179.809 160.769 179.828 161.09 179.928 161.383C179.974 161.529 180.075 161.685 180.222 161.694C180.405 161.703 180.524 161.511 180.57 161.337C180.671 161.007 180.716 160.504 180.496 160.211C180.267 159.89 179.974 160.156 179.892 160.467Z" fill="black"/>
<path d="M185.142 161.173C185.151 161.301 185.161 161.429 185.216 161.539C185.271 161.649 185.38 161.75 185.509 161.75C185.628 161.75 185.738 161.658 185.793 161.549C185.848 161.439 185.866 161.31 185.875 161.191C185.903 160.917 185.949 160.166 185.536 160.111C185.087 160.047 185.124 160.908 185.142 161.173Z" fill="black"/>
<path opacity="0.9115" d="M160.359 217.72C161.166 218.352 161.963 219.167 162.641 220.202C162.714 220.312 162.778 220.413 162.842 220.523C164.528 219.68 166.214 218.828 167.909 217.986C167.735 217.638 167.002 216.246 166.251 215.074C165.82 214.396 165.499 213.975 165.334 213.773C165.142 213.526 164.968 213.325 164.84 213.178C164.546 213.435 164.153 213.792 163.694 214.222C163.145 214.744 162.742 215.165 162.393 215.523C161.862 216.072 161.459 216.512 161.266 216.722C160.909 217.088 160.607 217.436 160.359 217.72Z" fill="#F8D0E2"/>
<path opacity="0.2121" d="M166.992 218.627C167.973 218.169 168.971 217.702 169.75 216.96C168.266 217.785 166.708 218.609 165.086 219.424C163.905 220.019 162.732 220.578 161.596 221.109C162.448 220.99 163.474 220.275 164.271 219.909C165.178 219.479 166.085 219.048 166.992 218.627Z" fill="#D6C5DF"/>
<path d="M178.628 244.057C178.509 244.744 178.334 245.504 177.748 245.88C177.327 246.145 176.795 246.145 176.31 246.264C175.824 246.383 175.311 246.75 175.348 247.253C176.172 246.896 176.997 246.539 177.821 246.182C178.078 246.072 178.353 245.944 178.527 245.724C178.738 245.459 178.783 245.175 178.793 245.092C179.049 243.526 182.503 237.501 182.183 228.92C182.164 228.325 182.109 227.409 181.972 226.283C181.266 227.281 181.285 229.323 181.065 230.541C180.799 232.043 180.524 233.545 180.259 235.046C179.709 238.05 179.168 241.054 178.628 244.057Z" fill="#203765"/>
<path opacity="0.2121" d="M186.461 188.828C186.379 188.965 186.232 189.075 186.058 189.405C185.774 189.964 185.884 190.202 185.637 190.815C185.509 191.127 185.371 191.328 185.096 191.713C184.776 192.161 184.482 192.491 184.382 192.601C184.363 192.628 184.345 192.638 184.345 192.638C183.777 193.233 181.596 203.489 182.604 203.608C182.888 203.645 182.934 202.784 184.675 198.737C185.124 197.693 185.747 196.356 186.984 193.737C187.753 192.097 188.789 189.89 190.044 187.271C188.972 186.246 187.9 185.22 186.828 184.204C187.552 184.286 188.266 184.368 188.99 184.451C188.331 179.13 188.065 177.656 187.964 177.665C187.854 177.674 188.404 179.634 187.35 181.099C186.223 182.665 184.382 182.189 184.015 183.279C183.447 184.927 187.194 187.61 186.461 188.828Z" fill="#D6C5DF"/>
<path d="M183.053 159.405C183.191 160.138 183.319 160.907 183.42 161.722C183.521 162.501 183.594 163.251 183.649 163.966C182.989 164.021 182.33 164.076 181.67 164.131" fill="#EBBCD5"/>
<path d="M184.529 164.332C184.318 164.799 183.888 165.138 183.411 165.312C182.935 165.486 182.413 165.532 181.909 165.532C181.405 165.532 181.011 165.532 180.543 165.349C180.003 165.138 179.646 164.808 179.453 164.598C180.131 164.552 180.809 164.515 181.487 164.479C182.504 164.424 183.521 164.378 184.529 164.332Z" fill="white"/>
<path opacity="0.2121" d="M155.548 199.946C154.843 199.982 154.137 200.202 153.578 200.623C154 200.522 154.613 200.44 155.356 200.522C156.464 200.651 157.27 201.109 157.692 201.383C157.692 201.292 157.701 201.154 157.756 200.999C157.839 200.779 157.967 200.642 158.04 200.577C157.811 200.422 157.5 200.248 157.106 200.12C156.418 199.891 155.86 199.927 155.548 199.946Z" fill="#D6C5DF"/>
<path opacity="0.2121" d="M164.538 200.999C164.831 201.044 166.141 197.244 165.646 192.876C165.61 192.537 165.564 192.262 165.536 192.052C164.95 192.812 164.364 193.563 163.777 194.323C163.86 194.68 163.97 195.193 164.071 195.806C164.144 196.237 164.281 197.098 164.391 198.535C164.538 200.541 164.446 200.98 164.538 200.999Z" fill="#D6C5DF"/>
<path opacity="0.2121" d="M172.04 188.069C172.16 188.179 172.334 188.234 172.599 188.499C173.039 188.939 173.003 189.213 173.424 189.708C173.644 189.964 173.836 190.111 174.212 190.404C174.734 190.798 175.165 191.027 175.22 191.054C176.493 191.759 181.441 200.807 180.745 201.137C180.36 201.32 179.187 198.444 174.194 191.704C172.416 189.305 170.859 187.373 169.787 186.072C170.593 184.8 171.399 183.518 172.205 182.245C170.914 183.243 169.631 184.241 168.339 185.239C167.304 179.534 167.102 177.913 167.203 177.895C167.313 177.867 167.386 179.9 168.834 180.972C170.382 182.116 171.995 181.109 172.673 182.034C173.726 183.435 170.969 187.144 172.04 188.069Z" fill="#D6C5DF"/>
<path d="M179.48 191.099C179.104 189.68 177.941 185.275 176.09 182.711C175.952 182.528 175.247 181.557 174.358 180.22C173.873 179.487 173.332 178.627 172.746 177.647C172.315 176.923 171.985 176.328 171.774 175.962C171.435 175.907 171.06 175.879 170.657 175.888C168.971 175.925 167.67 176.63 166.955 177.116C167.34 179.634 167.917 182.116 168.659 184.542C169.731 183.572 170.931 182.738 172.214 182.07C171.445 183.352 170.675 184.634 169.905 185.916C171.481 187.509 173.167 189.423 174.816 191.694C177.812 195.815 179.736 199.79 181.001 203.031C180.992 197.903 180.194 193.837 179.48 191.099Z" fill="white"/>
<path d="M182.412 199.781C182.503 200.211 182.577 200.688 182.632 201.191C182.723 202.034 182.732 202.803 182.705 203.481C187.075 192.483 189.036 187.757 189.274 187.455C189.302 187.428 189.503 187.208 189.467 186.942C189.448 186.805 189.357 186.695 189.274 186.594C188.578 185.733 187.854 184.891 187.103 184.076C187.707 184.222 188.34 184.232 188.944 184.094C188.605 182.473 188.257 180.843 187.918 179.222C187.808 178.71 187.698 178.179 187.405 177.748C187.313 177.611 186.993 177.171 186.406 176.832C185.866 176.512 185.353 176.439 185.078 176.411C184.18 183.957 183.273 191.503 182.375 199.048" fill="white"/>
<path d="M183.283 278.517C184.263 290.019 184.4 301.594 183.695 313.114C182.953 312.885 182.146 312.858 181.386 313.013C178.711 299.945 179.059 286.493 178.775 273.16C178.72 270.394 178.628 267.629 178.317 264.872C178.005 262.18 177.483 259.524 176.951 256.869C176.686 255.522 175.321 252.107 176.722 251.154C179.279 254.744 180.396 260.147 181.313 264.396C182.293 268.911 183.283 273.883 183.283 278.517Z" fill="#203765"/>
<path d="M161.917 276.438C162.906 272.986 163.832 269.497 165.151 266.154C167.423 260.385 170.795 255.129 174.157 249.918C171.216 256.942 168.266 263.966 165.325 270.989C164.253 273.544 163.181 276.099 162.228 278.709C160.671 282.995 159.443 287.39 158.078 291.74C157.015 295.101 155.87 298.434 154.642 301.74C153.561 304.625 152.571 309.039 150.611 311.328C149.099 310.348 155.329 296.887 156.099 294.716C158.224 288.682 160.167 282.583 161.917 276.438Z" fill="#203765"/>
<path d="M187.176 188.307C187.369 187.574 187.479 186.814 187.479 186.054C187.479 185.587 187.442 185.092 187.204 184.68C186.709 183.82 185.609 183.453 184.675 183.719C183.979 183.911 183.456 184.516 183.163 185.175C182.87 185.834 182.788 186.567 182.705 187.281" stroke="#231F20" stroke-width="0.5" stroke-miterlimit="10"/>
<path d="M185.536 183.865C185.545 181.557 185.545 179.222 184.941 176.997C184.748 176.282 184.409 175.504 183.713 175.257" stroke="#231F20" stroke-width="0.5" stroke-miterlimit="10"/>
<path opacity="0.2121" d="M177.968 189.149C178.97 189.149 179.783 188.337 179.783 187.336C179.783 186.334 178.97 185.522 177.968 185.522C176.966 185.522 176.154 186.334 176.154 187.336C176.154 188.337 176.966 189.149 177.968 189.149Z" fill="#D6C5DF"/>
<path d="M173.15 173.242C172.673 174.057 172.417 174.826 172.27 175.495C171.088 180.98 176.558 185.88 177.218 186.456" stroke="#231F20" stroke-width="0.5" stroke-miterlimit="10"/>
<path d="M178.38 188.618C179.19 188.618 179.846 187.962 179.846 187.153C179.846 186.343 179.19 185.688 178.38 185.688C177.57 185.688 176.914 186.343 176.914 187.153C176.914 187.962 177.57 188.618 178.38 188.618Z" fill="white" stroke="#231F20" stroke-width="0.5" stroke-miterlimit="10"/>
<path d="M218.421 169.432C218.448 169.148 218.476 168.864 218.494 168.58C218.457 170.22 218.421 171.859 218.375 173.498C218.549 173.718 218.705 173.956 218.861 174.194C219.355 174.945 219.887 175.678 220.565 176.273C221.243 176.868 222.067 177.317 222.956 177.417C223.112 177.436 223.286 177.445 223.414 177.537C223.524 177.619 223.588 177.738 223.643 177.866C223.872 178.397 223.955 178.983 224.12 179.533C224.285 180.091 224.559 180.65 225.054 180.952C225.631 179.835 225.943 178.58 225.97 177.317C226.639 176.923 227.308 176.52 227.885 176.007C228.463 175.485 228.948 174.835 229.131 174.084C229.241 173.635 229.251 173.159 229.251 172.701C229.278 169.762 229.306 166.813 229.049 163.892C229.012 163.443 228.957 162.976 228.71 162.601C227.757 163.956 226.768 165.32 225.494 166.383C223.552 167.985 220.977 168.782 218.476 168.571" fill="#F8D0E2"/>
<path d="M225.768 167.976C225.062 168.873 223.789 168.983 223.477 169.038C222.176 169.267 220.83 169.184 219.565 168.809C219.51 168.791 219.336 168.91 219.18 168.846C218.814 168.681 218.878 167.857 218.86 167.866C218.85 167.866 218.731 168.919 219.006 170.521C219.299 172.206 219.483 173.232 220.371 173.983C220.472 174.074 221.544 174.944 222.836 174.706C223.294 174.624 223.725 174.404 225.374 172.463C227.591 169.853 228.132 168.699 228.343 168.195C228.544 167.728 228.746 167.252 228.901 166.565C229.341 164.587 228.929 162.683 228.599 162.664C228.306 162.646 227.985 164.084 227.774 164.029C227.747 164.02 227.738 163.983 227.719 163.974C227.426 163.681 226.84 163.488 226.464 163.708C225.594 164.23 226.922 166.52 225.768 167.976Z" fill="#EBBCD5"/>
<path d="M216.973 154.625C216.9 155.321 216.872 155.678 216.625 155.934C216.359 156.218 215.91 156.355 215.8 156.722C215.764 156.841 215.764 156.969 215.773 157.097C215.855 160.092 215.718 163.105 216.148 166.062C216.258 166.804 216.405 167.555 216.79 168.196C217.174 168.837 217.843 169.396 218.585 169.414H225.824C226.575 169.414 227.253 168.91 227.757 168.352C228.581 167.427 228.737 166.108 228.81 164.881C228.93 162.995 228.939 161.099 228.856 159.213C228.343 158.883 227.876 158.48 227.464 158.031C227.601 156.209 227.555 154.368 227.317 152.546C226.721 152.931 226.043 153.187 225.338 153.297C224.715 153.398 224.083 153.379 223.46 153.361C222.076 153.324 220.693 153.297 219.309 153.242C218.787 153.224 217.972 153.196 216.955 153.169C217.037 153.773 217.01 154.286 216.973 154.625Z" fill="#F8D0E2"/>
<path d="M225.338 156.447C225.567 156.52 225.796 156.639 225.897 156.859C225.659 156.84 225.412 156.831 225.173 156.813C224.981 156.804 224.789 156.795 224.605 156.804C224.294 156.831 223.982 156.932 223.717 157.106C223.625 157.161 223.542 157.225 223.442 157.253C223.203 157.317 222.892 157.17 222.764 156.969C223.304 156.291 224.559 156.19 225.338 156.447Z" fill="black"/>
<path d="M219.52 156.639C219.336 156.465 219.089 156.392 218.842 156.373C218.2 156.309 217.531 156.584 217.119 157.088C217.33 156.84 218.622 157.06 218.906 157.106C219.043 157.134 219.529 157.326 219.657 157.225C219.831 157.079 219.648 156.767 219.52 156.639Z" fill="black"/>
<path d="M223.77 159.78C223.797 159.954 223.834 160.137 223.944 160.274C224.054 160.412 224.255 160.494 224.411 160.412C224.53 160.348 224.594 160.219 224.631 160.091C224.75 159.725 224.768 159.322 224.686 158.947C224.603 158.562 224.237 158.058 223.898 158.47C223.632 158.782 223.715 159.404 223.77 159.78Z" fill="black"/>
<path d="M218.246 159.313C218.209 159.615 218.264 159.917 218.329 160.211C218.365 160.348 218.411 160.504 218.539 160.559C218.649 160.613 218.787 160.559 218.878 160.476C218.961 160.385 219.007 160.265 219.043 160.146C219.144 159.798 219.254 159.075 218.988 158.773C218.622 158.352 218.292 158.947 218.246 159.313Z" fill="black"/>
<path d="M218.474 163.892C217.833 164.331 217.384 165.165 217.632 165.897C220.261 165.851 222.9 165.659 225.502 165.32C225.685 164.862 225.484 164.331 225.126 163.993C224.769 163.654 224.292 163.489 223.825 163.351C222.185 162.903 219.94 162.884 218.474 163.892Z" fill="black"/>
<path d="M209.038 315.44C210.01 315.495 210.908 315.54 211.732 315.577C216.652 315.824 217.981 315.815 219.557 315.266C220.143 315.055 220.894 314.725 221.728 314.185C221.957 313.013 222.333 310.989 222.69 308.452C223.542 302.335 223.606 297.656 223.67 296.117C224.028 287.491 224.953 249.396 225.613 249.387C226.08 249.377 226.3 268.755 228.343 297.93C228.783 304.158 229.195 309.405 229.525 313.233C231.083 313.865 232.448 314.103 233.41 314.203C234.06 314.267 236.608 314.487 239.677 313.443C240.877 313.031 241.821 312.546 242.48 312.161C242.416 302.207 242.426 292.134 242.508 281.951C242.645 265.504 242.975 249.332 243.479 233.471C241.317 234.112 238.394 234.844 234.903 235.376C233.153 235.641 229.562 236.181 225.686 236.09C222.369 236.007 216.735 235.412 209.955 232.28C209.909 236.52 209.826 242.821 209.607 250.495C209.396 257.949 209.268 258.883 209.066 265.843C208.507 285.376 208.562 296.548 208.562 296.548C208.599 301.31 208.709 307.747 209.038 315.44Z" fill="#203765"/>
<path d="M214.644 153.049C215.221 152.775 215.762 152.427 216.266 152.033C215.863 151.465 215.799 150.696 216 150.027C216.211 149.359 216.66 148.791 217.191 148.342C217.64 147.967 218.172 147.674 218.749 147.582C219.216 147.509 219.702 147.591 220.169 147.665C222.313 147.985 224.475 148.205 226.637 148.324C227.132 148.351 227.636 148.37 228.113 148.507C228.589 148.645 229.047 148.919 229.313 149.341C229.524 149.688 229.588 150.091 229.643 150.494C229.945 152.866 229.863 155.275 229.743 157.665C229.743 157.738 229.734 157.82 229.707 157.894C229.661 158.004 229.56 158.086 229.478 158.177C229.093 158.553 228.882 159.112 228.928 159.643C228.534 159.029 227.957 158.544 227.279 158.278C227.105 156.474 226.986 154.661 226.94 152.857C226.463 153.214 225.868 153.388 225.291 153.535C224.704 153.681 224.1 153.809 223.495 153.782C223.055 153.764 222.634 153.663 222.194 153.617C221.479 153.544 220.755 153.608 220.032 153.635C219.106 153.672 218.181 153.654 217.255 153.58C217.329 154.194 217.356 154.808 217.347 155.421C217.347 155.577 217.338 155.742 217.255 155.87C217.155 156.025 216.971 156.099 216.825 156.19C216.367 156.483 216.119 157.024 216.055 157.564C215.991 158.104 216.092 158.645 216.193 159.176C215.899 159.24 215.579 159.185 215.322 159.029C215.194 158.956 215.084 158.855 214.937 158.828C214.818 158.809 214.717 158.873 214.653 158.965C214.498 158.058 214.644 156.978 214.653 156.053C214.635 155.046 214.635 154.047 214.644 153.049Z" fill="black"/>
<path d="M229.076 158.013C229.388 157.637 229.938 157.436 230.35 157.674C230.707 157.885 230.845 158.333 230.936 158.746C231.092 159.46 231.165 160.192 231.055 160.907C230.945 161.621 230.625 162.326 230.093 162.793C229.58 163.242 228.911 163.452 228.27 163.645C228.307 161.987 227.913 159.396 229.076 158.013Z" fill="#F8D0E2"/>
<path d="M216.779 159.67C216.724 159.258 216.596 158.855 216.385 158.498C216.23 158.223 216.01 157.967 215.717 157.866C215.259 157.701 214.736 157.976 214.452 158.388C214.177 158.8 214.086 159.322 214.04 159.826C213.957 160.769 213.985 161.749 214.37 162.61C214.755 163.47 215.533 164.175 216.45 164.221C216.45 162.399 216.44 160.577 216.44 158.754" fill="#F8D0E2"/>
<path d="M215.451 190.815C214.654 205.943 214.379 221.09 214.617 236.236C221.305 237.234 228.14 237.234 234.829 236.227C234.856 229.103 234.078 221.987 234.847 214.899C235.168 211.932 235.314 208.956 235.287 205.971C235.232 199.78 234.417 193.608 234.536 187.418C234.582 185.119 234.746 182.821 234.554 180.54C234.462 179.487 234.297 178.425 233.922 177.436C233.116 175.275 231.421 173.571 229.781 171.941C229.332 173.123 228.489 174.744 226.904 176.09C226.592 176.355 226.281 176.584 225.978 176.786C225.951 177.299 225.887 177.848 225.786 178.434C225.584 179.579 225.282 180.568 224.961 181.383C224.347 180.22 223.733 179.057 223.11 177.894C222.909 177.619 222.707 177.335 222.506 177.06C222.203 176.896 221.892 176.712 221.58 176.502C219.675 175.229 218.493 173.571 217.76 172.244C216.559 173.205 215.442 174.167 214.241 175.128C214.003 175.321 213.756 175.513 213.609 175.778C213.453 176.053 213.408 176.374 213.371 176.685C212.895 181.438 215.698 186.053 215.451 190.815Z" fill="#B3D2F8"/>
<path opacity="0.9888" d="M247.94 244.514C247.848 244.872 247.958 245.366 247.756 245.751C247.683 245.879 247.537 246.08 247.216 246.264C246.813 246.492 245.558 246.996 243.78 247.646C242.855 247.985 241.847 247.344 241.764 246.364C241.27 240.586 240.912 236.547 240.848 236.071C240.839 235.989 240.784 235.677 240.949 235.412C241.041 235.265 241.187 235.174 241.334 235.082C242.58 234.313 243.872 233.562 245.283 233.159C248.416 232.271 246.987 233.791 248.251 239.927C248.572 241.456 248.334 243.003 247.94 244.514Z" fill="#F8D0E2"/>
<path d="M240.529 249.652C236.122 250.623 231.247 245.751 230.276 240.879C227.353 226.264 227.353 212.628 228.325 198.013C229.296 188.269 231.247 179.505 229.516 170.146C230.166 170.22 231.128 170.394 232.154 170.897C233.18 171.401 234.06 172.124 234.903 173.086C236.745 175.183 239.118 175.971 241.747 177.161C243.076 177.756 244.303 178.397 245.669 178.874C246.447 179.139 247.235 179.423 247.868 179.936C248.756 180.668 249.233 181.786 249.508 182.903C249.957 184.744 250.167 186.172 250.176 186.282C250.644 195.815 250.369 201.09 250.369 201.09C249.966 209.048 250.25 227.152 250.515 229.505C250.534 229.643 250.552 230.082 250.35 230.549C249.956 231.456 248.775 231.667 247.785 231.712C245.641 231.813 243.488 231.74 241.353 231.502C241.207 237.308 241.06 243.104 240.923 248.91C240.913 249.249 240.849 249.789 240.529 249.652Z" fill="white"/>
<path d="M194.104 203.755C195.149 203.69 196.193 203.755 197.238 203.819C198.374 203.892 199.483 203.965 200.619 204.029C200.39 204.936 200.243 205.87 200.197 206.804C200.179 207.17 200.179 207.546 200.17 207.912C200.161 209.24 200.179 210.577 200.371 211.896C200.609 213.516 201.132 215.082 201.48 216.685C201.489 216.74 201.498 216.804 201.471 216.85C201.443 216.896 201.361 216.896 201.333 216.841C199.611 216.575 197.852 216.603 196.111 216.438C194.37 216.264 192.602 215.87 191.182 214.863C190.494 214.377 189.908 213.764 189.377 213.104C188.754 212.335 188.186 211.429 188.186 210.44C188.186 209.89 188.35 209.359 188.525 208.846C190.366 203.196 192.483 197.637 194.856 192.189C195.222 191.346 195.607 190.495 196.12 189.725C196.551 189.093 196.88 188.452 197.274 187.802C199.043 184.853 200.747 181.877 202.405 178.874C202.497 178.709 202.589 178.544 202.726 178.425C202.827 178.342 202.946 178.288 203.065 178.233C205.795 176.996 208.681 176.145 211.558 175.311C212.355 175.073 213.162 174.844 213.959 174.606C214.096 174.57 214.243 174.524 214.334 174.414C214.49 174.24 214.454 173.984 214.518 173.764C214.628 173.388 214.994 173.169 215.333 172.985C216.387 172.408 216.854 171.987 217.706 171.676C217.99 171.575 218.228 171.502 218.393 171.456C218.384 171.777 218.366 172.299 218.347 172.93C218.128 182.418 219.374 189.496 219.749 191.795C222.837 210.962 219.255 235.586 219.621 238.919C219.713 239.78 219.813 240.668 219.539 241.493C219.401 241.914 219.172 242.299 218.925 242.674C216.488 246.438 212.759 249.341 208.516 250.788C208.48 249.277 208.425 246.822 208.333 243.782C208.013 232.564 207.738 223.407 206.84 212.28C206.647 209.872 206.327 206.218 205.85 201.74C204.513 201.832 203.468 202.06 202.781 202.234C201.022 202.692 200.637 203.123 198.466 203.636C196.908 204.029 195.662 204.148 194.104 203.755Z" fill="white"/>
<path opacity="0.2121" d="M206.234 193.736C206.078 191.291 205.877 188.855 205.648 186.419C205.162 188.434 204.677 190.458 204.182 192.473C203.852 193.828 203.522 195.192 203.412 196.584C203.321 197.683 204.292 200.284 205.895 199.249C207.05 198.498 206.307 194.918 206.234 193.736Z" fill="#D6C5DF"/>
<path d="M203.952 213.443C205.162 214.807 206.985 215.604 208.808 215.558C210.054 215.531 211.254 215.137 212.427 214.725C214.956 213.846 217.457 212.903 219.931 211.877C220.215 211.758 220.527 211.62 220.664 211.346C220.765 211.153 220.765 210.934 220.765 210.714C220.774 208.342 220.362 206.007 220.288 203.644C220.169 199.789 219.711 195.787 219.216 191.959C215.066 193.617 210.778 194.945 206.408 195.925C206.114 195.989 205.812 196.053 205.519 195.989C205.226 195.925 204.758 195.577 204.749 195.284C200.434 192.426 196.531 189.038 192.729 185.531C194.387 192.692 196.045 199.853 197.713 207.014" fill="#203765"/>
<path opacity="0.9115" d="M209.744 206.575C212.42 205.705 213.721 205.22 214.133 204.963C214.224 204.908 214.6 204.67 214.838 204.808C214.93 204.863 214.967 204.954 214.994 205.009C214.857 205.394 214.563 206.007 213.968 206.538C213.51 206.951 213.061 207.125 212.319 207.418C211.815 207.619 211.082 207.857 210.156 208.031" fill="#F8D0E2"/>
<path opacity="0.9115" d="M210.191 207.903C211.492 207.784 212.335 207.381 212.876 207.024C213.087 206.886 214.406 205.97 214.763 206.117C214.864 206.154 214.91 206.236 214.91 206.236C214.992 206.373 214.882 206.575 214.846 206.648C214.397 207.463 212.949 208.187 212.949 208.187C212.015 208.654 211.245 209.02 210.695 209.276" fill="#F8D0E2"/>
<path opacity="0.9115" d="M210.687 209.258C211.255 209.02 211.888 208.736 212.547 208.37C213.244 207.985 213.848 207.582 214.371 207.207C213.344 209.176 212.016 210.137 211.329 210.559C209.771 211.511 208.159 211.712 206.482 211.932C205.492 212.06 204.659 212.088 204.063 212.088C204.017 210.275 203.852 208.461 203.559 206.667C203.532 206.511 203.513 206.355 203.559 206.209C203.907 206.209 204.32 206.099 204.659 206.007C204.714 205.989 204.778 205.971 204.805 205.925C204.833 205.879 204.824 205.824 204.824 205.778C204.695 204.798 204.576 203.809 204.448 202.83C204.393 202.399 204.338 201.96 204.347 201.529C204.347 201.428 204.375 201.3 204.466 201.264C204.558 201.227 204.659 201.291 204.732 201.355C205.822 202.289 206.574 203.544 207.325 204.762C207.398 204.872 207.471 204.991 207.581 205.064C207.755 205.183 207.984 205.165 208.195 205.137C210.202 204.899 212.181 204.46 214.096 203.837C214.306 203.773 214.581 203.718 214.719 203.901C214.838 204.066 214.636 204.386 214.554 204.505C214.013 205.375 210.88 206.273 209.725 206.584" fill="#F8D0E2"/>
<path d="M202.01 213.379C201.882 211.346 201.763 209.313 201.635 207.289C201.561 206.053 201.424 204.698 200.535 203.846C199.857 205.064 199.601 206.474 199.491 207.866C199.307 210.165 199.491 212.491 200.031 214.734C200.15 215.229 200.819 217.436 201.58 216.822C202.322 216.227 202.056 214.185 202.01 213.379Z" fill="#E0E0E0"/>
<path d="M202.615 205.677C202.944 205.659 203.348 205.677 203.494 205.98C203.531 206.053 203.54 206.126 203.558 206.208C203.943 208.37 204.181 210.558 204.291 212.747C204.3 212.958 204.31 213.177 204.227 213.379C204.044 213.837 203.476 213.992 202.981 214.056C201.946 214.194 200.892 214.203 199.848 214.075C199.784 214.066 199.71 214.056 199.655 214.02C199.582 213.965 199.554 213.864 199.527 213.773C199.307 212.838 199.078 211.914 198.858 210.98C198.657 210.155 198.455 209.313 198.446 208.461C198.437 207.765 198.537 206.355 199.261 206.044C199.71 205.851 200.425 205.888 200.91 205.833C201.479 205.769 202.047 205.714 202.615 205.677Z" fill="#5F88D2"/>
<path d="M221.426 157.802C221.261 158.617 221.114 159.468 220.977 160.366C220.839 161.309 220.739 162.207 220.656 163.067C221.215 163.012 221.783 162.948 222.342 162.893" fill="#EBBCD5"/>
<path d="M240.822 231.474C240.74 231.474 240.666 231.474 240.584 231.474C243.699 231.483 246.906 230.604 250.003 231.071C249.471 231.593 248.289 231.722 247.584 231.831C246.347 232.033 245.128 232.042 243.892 231.95C242.664 231.859 241.537 231.474 240.822 231.474Z" fill="#E0E0E0"/>
<path d="M230.294 178.599C229.927 179.139 229.882 179.771 229.341 180.229C229.204 179.844 230.065 178.937 230.294 178.599Z" fill="#5F88D2"/>
<path d="M230.083 158.571C230.184 158.993 229.964 159.423 229.762 159.798C229.606 160.082 229.441 160.522 229.212 160.732C229.093 160.384 229.249 159.872 229.386 159.551C229.432 159.423 230.083 158.571 230.083 158.571Z" fill="#EBBCD5"/>
<path d="M215.158 159.011C215.14 158.993 215.112 158.983 215.085 158.983C215.039 158.993 215.03 159.047 215.03 159.093C215.011 159.469 215.048 159.863 215.213 160.211C215.369 160.531 215.699 160.861 216.065 160.879C216.147 160.229 215.68 159.368 215.158 159.011Z" fill="#EBBCD5"/>
<path opacity="0.2121" d="M211.869 180.494C212.391 178.965 212.804 177.399 213.115 175.815C213.198 175.412 213.207 174.78 213.683 174.734C213.463 176.758 212.52 178.599 211.869 180.494Z" fill="#D6C5DF"/>
<path opacity="0.2121" d="M215.836 180.669C214.608 180.678 212.895 180.989 211.74 180.66C212.455 179.762 214.892 180.513 215.836 180.669Z" fill="#D6C5DF"/>
<path opacity="0.2121" d="M217.806 195.568C216.597 193.553 215.543 191.474 214.655 189.331C214.224 188.287 213.83 187.225 213.482 186.163C213.152 185.174 213.051 183.819 212.474 182.939C211.997 183.434 212.987 185.293 213.198 185.888C213.601 187.024 214.05 188.141 214.535 189.249C215.488 191.401 216.579 193.516 217.806 195.568Z" fill="#D6C5DF"/>
<path opacity="0.2121" d="M236.91 179.963C236.992 180.311 236.708 180.668 236.369 180.797C236.03 180.925 235.655 180.897 235.297 180.87C234.766 180.833 234.235 180.852 233.703 180.842C233.905 180.394 236.864 179.762 236.91 179.963Z" fill="#D6C5DF"/>
<path opacity="0.2121" d="M231.688 171.676C233.731 173.764 234.858 176.502 236.534 178.855C235.123 176.328 233.74 173.773 231.688 171.676Z" fill="#D6C5DF"/>
<path opacity="0.2121" d="M231.825 189.615C231.037 190.659 230.24 191.703 229.662 192.875C228.755 194.734 228.462 196.831 227.857 198.809C228.261 197.271 228.911 195.375 230.011 193.342C230.734 191.987 231.513 190.851 232.246 189.917C233.666 188.168 235.086 186.41 236.516 184.661C236.387 184.45 236.259 184.249 236.131 184.038C234.509 185.65 233.208 187.793 231.825 189.615Z" fill="#D6C5DF"/>
<path opacity="0.2121" d="M241.095 220.385C241.077 218.123 241.361 215.87 241.618 213.617C242.323 207.582 242.891 201.538 243.34 195.476C243.487 193.416 243.615 191.273 242.845 189.359C240.536 199.066 240.307 209.13 240.088 219.112C240.051 220.613 239.391 227.866 241.343 228.233C241.847 225.769 241.114 222.894 241.095 220.385Z" fill="#D6C5DF"/>
<path opacity="0.2121" d="M238.595 223.525C236.479 225.165 233.794 225.796 231.678 223.937C233.987 225.339 236.305 225.302 238.595 223.525Z" fill="#D6C5DF"/>
<path opacity="0.2121" d="M214.324 227.188C215.029 227.079 215.762 226.932 216.449 227.115C215.176 227.381 213.902 227.619 212.62 227.82C211.731 227.958 210.201 228.48 209.395 228.068C209.761 226.978 213.307 227.344 214.324 227.188Z" fill="#D6C5DF"/>
<path d="M197.007 203.645C196.448 203.599 195.899 203.553 195.34 203.581C194.048 203.636 192.765 204.093 191.739 204.881C190.227 206.053 189.357 207.848 188.541 209.579C188.441 209.789 188.34 210.009 188.294 210.238C188.175 210.833 188.45 211.438 188.77 211.96C190.291 214.451 193.013 216.163 195.917 216.456C196.366 216.502 196.476 216.484 197.997 216.63C199.444 216.758 200.635 216.896 201.414 216.996C201.139 216.218 200.828 215.201 200.544 213.993C200.342 213.114 200.077 211.951 199.948 210.403C199.866 209.386 199.738 207.656 200.159 205.476C200.287 204.808 200.434 204.267 200.544 203.883C200.379 203.883 200.104 203.883 199.774 203.874C198.62 203.837 198.043 203.727 197.007 203.645Z" fill="white"/>
<path opacity="0.2121" d="M187.278 208.681C187.195 209.295 187.122 210.165 187.378 211.181C187.827 212.976 189 214.103 189.586 214.606C189.284 214.524 188.853 214.377 188.405 214.084C186.829 213.04 186.508 211.117 186.435 210.65C185.922 207.555 187.965 204.588 189.137 202.894C190.475 200.824 191.639 199.496 191.675 199.524C191.749 199.57 187.919 204.112 187.278 208.681Z" fill="#D6C5DF"/>
<path d="M221.626 182.024C221.608 181.309 223.12 179.185 222.424 178.599C221.727 179.377 221.599 181.025 221.626 182.024Z" fill="#5F88D2"/>
<path d="M219.996 179.698C219.409 179.039 218.777 178.398 218.355 177.619C219.024 179.075 219.986 180.376 220.967 181.639C221.067 181.758 221.168 181.887 221.315 181.951C222.048 182.262 221.269 181.246 221.15 181.09C220.783 180.614 220.399 180.156 219.996 179.698Z" fill="#5F88D2"/>
<path d="M222.589 214.899C222.113 205.33 221.114 195.797 220.125 186.264C220.079 185.797 220.143 184.341 219.731 182.473C219.355 180.769 218.796 179.46 218.43 178.709C218.485 180.073 218.595 182.097 218.833 184.542C219.199 188.398 219.593 190.266 219.996 193.141C220.757 198.562 220.894 202.775 220.995 206.008C221.123 209.982 221.032 212.812 220.894 216.914C220.748 221.337 220.455 227.262 219.822 234.313C219.758 235.119 219.694 235.925 219.639 236.731C220.244 235.907 221.068 234.625 221.682 232.921C222.635 230.275 222.47 228.04 222.562 226.896C222.892 222.912 222.782 218.892 222.589 214.899Z" fill="#5F88D2"/>
<path d="M228.875 180.476C228.829 179.935 228.114 179.194 227.757 178.827C227.271 178.333 226.658 178.049 226.145 177.637C226.493 177.216 227.656 178.196 227.931 178.47C228.453 179.011 228.811 179.725 228.875 180.476Z" fill="#5F88D2"/>
<path d="M226.281 236.575C225.969 232.6 225.667 228.635 225.355 224.661C225.154 222.033 224.943 219.404 224.852 216.767C224.787 215.137 224.769 213.498 224.751 211.868C224.677 206.08 224.604 200.302 224.531 194.514C224.476 190.357 224.485 186.209 224.952 182.069C224.842 196.227 224.815 210.339 225.539 224.478C225.74 228.516 225.988 232.546 226.281 236.575Z" fill="#5F88D2"/>
<path d="M248.426 234.734C247.061 235.009 245.366 235.211 243.415 235.119C242.499 235.073 241.665 234.982 240.904 234.844C240.968 233.736 241.033 232.628 241.097 231.52C242.251 231.419 243.406 231.319 244.569 231.218C245.174 231.126 245.843 231.044 246.557 231.007C247.19 230.971 247.785 230.961 248.335 230.971C248.362 232.225 248.399 233.48 248.426 234.734Z" fill="#5F88D2"/>
<path d="M218.283 170.989C217.449 171.429 216.982 172.326 216.615 173.196C215.351 176.172 214.664 179.396 214.6 182.628" stroke="black" stroke-width="0.5" stroke-miterlimit="10"/>
<path d="M229.332 170.421C229.946 170.512 230.477 170.906 230.908 171.355C231.962 172.436 232.64 173.837 233.052 175.284C233.473 176.73 233.647 178.241 233.822 179.734" stroke="black" stroke-width="0.5" stroke-miterlimit="10"/>
<path opacity="0.2121" d="M214.554 186.492C215.708 186.492 216.643 185.557 216.643 184.404C216.643 183.251 215.708 182.316 214.554 182.316C213.4 182.316 212.465 183.251 212.465 184.404C212.465 185.557 213.4 186.492 214.554 186.492Z" fill="#D6C5DF"/>
<path d="M230.789 186.822C230.826 184.872 231.293 182.93 232.145 181.172C232.466 180.503 232.924 179.807 233.648 179.652C234.271 179.524 234.921 179.872 235.315 180.366C235.709 180.87 235.902 181.492 236.057 182.115C236.488 183.846 236.699 185.622 236.69 187.399" stroke="black" stroke-width="0.5" stroke-miterlimit="10"/>
<path d="M215.057 186.081C216.054 186.081 216.862 185.273 216.862 184.277C216.862 183.28 216.054 182.473 215.057 182.473C214.06 182.473 213.252 183.28 213.252 184.277C213.252 185.273 214.06 186.081 215.057 186.081Z" stroke="black" stroke-width="0.5" stroke-miterlimit="10"/>
<path opacity="0.2" d="M455.519 317.482C495.55 317.482 528.001 315.875 528.001 313.892C528.001 311.909 495.55 310.302 455.519 310.302C415.488 310.302 383.037 311.909 383.037 313.892C383.037 315.875 415.488 317.482 455.519 317.482Z" fill="#A6CAFC"/>
<path d="M430.268 236.126H435.646L435.142 232.363C434.995 231.291 434.088 230.495 433.007 230.495C431.944 230.495 431.046 231.264 430.872 232.308L430.268 236.126Z" fill="#B3D2F8"/>
<path d="M434.087 235.852C434.087 235.852 433.84 233.041 432.96 233.041C432.08 233.041 431.879 235.852 431.879 235.852" fill="#FDB756"/>
<path d="M430.854 245.092H435.453C437.368 245.092 438.926 243.544 438.926 241.621V238.755C438.926 236.841 437.378 235.284 435.453 235.284H430.597C428.683 235.284 427.125 236.832 427.125 238.755V241.365C427.134 243.425 428.802 245.092 430.854 245.092Z" fill="#182852"/>
<path d="M379.079 296.026C380.663 296.026 381.947 294.743 381.947 293.16C381.947 291.577 380.663 290.293 379.079 290.293C377.495 290.293 376.211 291.577 376.211 293.16C376.211 294.743 377.495 296.026 379.079 296.026Z" fill="#5F88D2"/>
<path d="M379.079 297.83C379.711 300.046 380.517 301.804 381.489 302.647C383.348 304.249 409.287 305.092 437.167 305.074C447.356 305.064 457.8 304.945 467.421 304.707C487.999 304.194 504.812 303.141 507.286 301.511C507.863 301.136 508.302 299.817 508.642 297.83C509.21 294.46 509.484 288.874 509.53 282.5C509.558 279.149 509.521 275.568 509.439 271.978C509.2 261.832 508.577 250.064 507.817 243.462C507.67 242.143 507.505 241.035 507.35 240.183C507.176 239.259 507.001 238.645 506.818 238.398C505.801 236.997 487.807 237.18 467.412 237.042C457.324 236.978 446.65 237.052 437.158 237.262C421.619 237.601 409.223 238.297 407.72 239.304C407.372 239.542 407.014 239.835 406.648 240.193C405.814 241.017 404.953 242.134 404.083 243.471C398.659 251.832 393.143 268.334 393.143 268.334C393.143 268.334 389.725 269.955 386.125 271.978C382.625 273.947 378.96 276.292 378.108 277.922C377.686 278.718 377.439 280.385 377.366 282.5C377.191 286.923 377.787 293.325 379.079 297.83Z" fill="#FAFFFF"/>
<path opacity="0.2" d="M437.158 248.471V305.064C447.347 305.055 457.791 304.954 467.412 304.753V248.315C467.412 247.115 466.441 246.145 465.24 246.136C456.564 246.099 447.548 246.154 439.293 246.291C438.111 246.319 437.158 247.289 437.158 248.471Z" fill="#A6CAFC"/>
<path d="M379.078 297.83C379.71 300.046 380.517 301.804 381.488 302.647C385.483 306.099 500.468 306.008 507.285 301.511C507.862 301.136 508.302 299.817 508.641 297.83H379.078Z" fill="#203765"/>
<path d="M470.461 302.253C473.759 302.189 477.049 302.125 480.347 302.042C484.461 301.942 488.575 301.832 492.67 301.429C493.88 301.31 495.08 301.136 496.28 300.944C494.942 295.119 489.72 290.77 483.49 290.77C476.792 290.77 471.267 295.779 470.461 302.253Z" fill="#203765"/>
<path d="M389.643 301.411C398.255 302.18 406.922 302.4 415.59 302.491C414.894 295.907 409.314 290.77 402.543 290.77C396.139 290.77 390.806 295.348 389.643 301.411Z" fill="#203765"/>
<path opacity="0.2" d="M398.365 268.187H414.747C415.764 268.187 416.36 268.187 416.36 268.187L417.258 262.418L418.21 256.328L419.796 246.126L410.798 246.209L406.684 246.246C406.684 246.246 406.62 246.355 406.492 246.575C406.089 247.271 405.099 249.057 403.872 251.786C403.716 252.143 403.551 252.509 403.386 252.903C403.093 253.581 402.781 254.313 402.479 255.092C402.177 255.852 401.865 256.648 401.563 257.491C400.445 260.531 399.318 264.13 398.365 268.187Z" fill="#A6CAFC"/>
<path opacity="0.2" d="M420.088 268.187C420.088 268.187 425.924 268.187 430.056 268.187H432.484L432.539 262.537L432.594 257.115L432.704 246.126H423.441C423.313 246.126 423.24 246.126 423.24 246.126L422.635 250.376L422.204 253.407L420.088 268.187Z" fill="#A6CAFC"/>
<path d="M490.852 311.252C494.921 307.186 494.921 300.593 490.852 296.527C486.784 292.461 480.188 292.461 476.12 296.527C472.052 300.593 472.052 307.186 476.12 311.252C480.188 315.318 486.784 315.318 490.852 311.252Z" fill="#2D3C62"/>
<path d="M483.491 311.255C487.56 311.255 490.858 307.958 490.858 303.892C490.858 299.826 487.56 296.529 483.491 296.529C479.423 296.529 476.125 299.826 476.125 303.892C476.125 307.958 479.423 311.255 483.491 311.255Z" fill="#E1E2F5"/>
<path d="M483.49 307.445C485.454 307.445 487.045 305.854 487.045 303.892C487.045 301.93 485.454 300.339 483.49 300.339C481.527 300.339 479.936 301.93 479.936 303.892C479.936 305.854 481.527 307.445 483.49 307.445Z" fill="#182852"/>
<path d="M481.586 303.892C481.586 302.848 482.438 301.996 483.482 301.996C484.527 301.996 485.379 302.848 485.379 303.892C485.379 304.936 484.527 305.787 483.482 305.787C482.438 305.787 481.586 304.936 481.586 303.892Z" fill="#FAFFFF"/>
<path d="M412.68 306.319C414.002 300.723 410.535 295.115 404.936 293.794C399.337 292.472 393.726 295.938 392.404 301.534C391.082 307.13 394.549 312.738 400.148 314.06C405.747 315.381 411.358 311.916 412.68 306.319Z" fill="#2D3C62"/>
<path d="M402.534 311.255C406.603 311.255 409.901 307.958 409.901 303.892C409.901 299.826 406.603 296.529 402.534 296.529C398.466 296.529 395.168 299.826 395.168 303.892C395.168 307.958 398.466 311.255 402.534 311.255Z" fill="#E1E2F5"/>
<path d="M402.533 307.445C404.497 307.445 406.088 305.854 406.088 303.892C406.088 301.93 404.497 300.339 402.533 300.339C400.57 300.339 398.979 301.93 398.979 303.892C398.979 305.854 400.57 307.445 402.533 307.445Z" fill="#182852"/>
<path d="M400.637 303.892C400.637 302.848 401.489 301.997 402.533 301.997C403.578 301.997 404.43 302.848 404.43 303.892C404.43 304.936 403.578 305.788 402.533 305.788C401.489 305.788 400.637 304.936 400.637 303.892Z" fill="#FAFFFF"/>
<path d="M404.092 243.462H507.826C507.679 242.143 507.515 241.035 507.359 240.184H406.657C405.814 241.008 404.962 242.134 404.092 243.462Z" fill="#5F88D2"/>
<path d="M489.179 246.126H493.825C494.695 246.126 495.401 245.421 495.401 244.551V243.407C495.401 242.537 494.695 241.832 493.825 241.832H489.179C488.309 241.832 487.604 242.537 487.604 243.407V244.551C487.604 245.421 488.309 246.126 489.179 246.126Z" fill="#FAFFFF"/>
<path opacity="0.2" d="M489.849 245.824H493.165C493.825 245.824 494.366 245.293 494.366 244.625V243.755C494.366 243.095 493.834 242.555 493.165 242.555H489.849C489.189 242.555 488.648 243.086 488.648 243.755V244.625C488.648 245.293 489.18 245.824 489.849 245.824Z" fill="#A6CAFC"/>
<path d="M497.838 246.126H502.483C503.353 246.126 504.059 245.421 504.059 244.551V243.407C504.059 242.537 503.353 241.832 502.483 241.832H497.838C496.967 241.832 496.262 242.537 496.262 243.407V244.551C496.262 245.421 496.967 246.126 497.838 246.126Z" fill="#FAFFFF"/>
<path d="M498.499 245.824H501.816C502.475 245.824 503.016 245.293 503.016 244.625V243.755C503.016 243.095 502.485 242.555 501.816 242.555H498.499C497.839 242.555 497.299 243.086 497.299 243.755V244.625C497.308 245.293 497.839 245.824 498.499 245.824Z" fill="#FBDDD0"/>
<path d="M502.391 282.491H498.809L488.281 271.979H491.873L502.391 282.491Z" fill="#FF707F"/>
<path d="M480.742 271.979H484.334L494.861 282.491H491.27L480.742 271.979Z" fill="#FF707F"/>
<path d="M495.822 271.979H509.446C509.529 275.568 509.566 279.149 509.538 282.5H506.35L495.822 271.979Z" fill="#FF707F"/>
<path d="M473.201 271.979H476.793L487.32 282.491H483.728L473.201 271.979Z" fill="#FF707F"/>
<path d="M437.157 282.491H377.355C377.429 280.376 377.676 278.709 378.098 277.912C378.959 276.292 382.624 273.938 386.115 271.969H437.157V282.491Z" fill="#FF707F"/>
<path d="M467.42 271.979H469.252L479.78 282.491H467.42V271.979Z" fill="#FF707F"/>
<path d="M466.192 271.979H438.385V282.5H466.192V271.979Z" fill="#FF707F"/>
<path d="M440.291 275.596H444.359C444.616 275.596 444.827 275.385 444.827 275.129V274.79C444.827 274.533 444.616 274.323 444.359 274.323H440.291C440.035 274.323 439.824 274.533 439.824 274.79V275.129C439.824 275.385 440.035 275.596 440.291 275.596Z" fill="#182852"/>
<path d="M410.825 275.596H414.893C415.149 275.596 415.36 275.385 415.36 275.129V274.79C415.36 274.533 415.149 274.323 414.893 274.323H410.825C410.568 274.323 410.357 274.533 410.357 274.79V275.129C410.357 275.385 410.568 275.596 410.825 275.596Z" fill="#182852"/>
<path d="M505.755 296.09C506.565 296.09 507.221 295.434 507.221 294.625C507.221 293.816 506.565 293.16 505.755 293.16C504.945 293.16 504.289 293.816 504.289 294.625C504.289 295.434 504.945 296.09 505.755 296.09Z" fill="#FBDDD0"/>
<path d="M487.695 266.519H491.836V251.592H487.695V266.519Z" fill="#B3D2F8"/>
<path d="M482.256 261.005L484.326 264.589L497.259 257.126L495.189 253.541L482.256 261.005Z" fill="#B3D2F8"/>
<path d="M484.325 253.537L482.254 257.122L495.187 264.585L497.258 261L484.325 253.537Z" fill="#B3D2F8"/>
<path d="M400.866 263.755V269.762C400.866 269.762 397.815 269.799 397.064 269.176C395.864 268.187 395.305 266.52 396.578 265.156C397.504 264.158 400.866 263.755 400.866 263.755Z" fill="#182852"/>
<path d="M423.441 246.126L432.539 262.537L432.594 257.115L426.199 246.126H423.441Z" fill="#FAFFFF"/>
<path d="M422.205 253.407L430.057 268.187H432.064L422.636 250.375L422.205 253.407Z" fill="#FAFFFF"/>
<path d="M406.482 246.566L417.248 262.418L418.201 256.328L410.798 246.209L406.684 246.246C406.675 246.236 406.611 246.356 406.482 246.566Z" fill="#FAFFFF"/>
<path d="M403.377 252.894L413.474 268.187H414.738L403.863 251.777C403.716 252.134 403.551 252.509 403.377 252.894Z" fill="#FAFFFF"/>
<path d="M401.553 257.482L408.919 268.187H411.164L402.478 255.083C402.167 255.843 401.864 256.639 401.553 257.482Z" fill="#FAFFFF"/>
<path d="M430.805 293.626C431.19 293.626 431.492 293.744 431.71 293.98C431.927 294.214 432.036 294.551 432.036 294.991C432.036 295.303 431.977 295.571 431.859 295.794C431.744 296.017 431.58 296.186 431.367 296.301C431.155 296.417 430.91 296.474 430.632 296.474C430.485 296.474 430.345 296.459 430.211 296.427C430.077 296.393 429.963 296.346 429.868 296.286L430.105 295.817C430.238 295.909 430.41 295.955 430.62 295.955C430.853 295.955 431.038 295.887 431.175 295.751C431.311 295.612 431.384 295.412 431.395 295.153C431.23 295.318 431.002 295.4 430.71 295.4C430.535 295.4 430.375 295.365 430.23 295.294C430.086 295.223 429.972 295.124 429.888 294.995C429.804 294.864 429.762 294.713 429.762 294.543C429.762 294.359 429.808 294.198 429.9 294.059C429.992 293.92 430.116 293.814 430.274 293.74C430.434 293.664 430.611 293.626 430.805 293.626ZM430.852 294.924C430.991 294.924 431.104 294.886 431.19 294.81C431.28 294.732 431.324 294.632 431.324 294.511C431.324 294.391 431.281 294.292 431.194 294.216C431.11 294.14 430.994 294.102 430.844 294.102C430.708 294.102 430.596 294.139 430.51 294.212C430.426 294.286 430.384 294.385 430.384 294.511C430.384 294.637 430.426 294.738 430.51 294.814C430.596 294.888 430.71 294.924 430.852 294.924ZM433.381 293.673V296.427H432.744V294.185H432.193V293.673H433.381ZM430.899 298.673V301.427H430.262V299.185H429.711V298.673H430.899Z" fill="#182852"/>
<path d="M433.768 231.942C433.768 232.18 433.96 232.372 434.198 232.372C434.436 232.372 434.629 232.18 434.629 231.942C434.629 231.704 434.436 231.511 434.198 231.511C433.96 231.511 433.768 231.704 433.768 231.942Z" fill="#FAFFFF"/>
<path d="M436.92 232.665C436.783 232.665 436.664 232.573 436.636 232.436C436.6 232.28 436.701 232.125 436.865 232.088L440.943 231.227C441.098 231.191 441.254 231.291 441.291 231.456C441.327 231.612 441.227 231.768 441.062 231.804L436.985 232.665C436.966 232.665 436.939 232.665 436.92 232.665Z" fill="#B3D2F8"/>
<path d="M435.656 230.055C435.574 230.055 435.491 230.019 435.436 229.955C435.326 229.835 435.336 229.652 435.455 229.542L438.735 226.603C438.854 226.493 439.037 226.502 439.147 226.621C439.257 226.74 439.248 226.923 439.129 227.033L435.849 229.973C435.794 230.037 435.72 230.055 435.656 230.055Z" fill="#B3D2F8"/>
<path d="M429.297 232.665C429.278 232.665 429.26 232.665 429.233 232.656L425.155 231.795C425 231.758 424.899 231.603 424.926 231.447C424.963 231.291 425.119 231.19 425.275 231.218L429.352 232.079C429.507 232.115 429.608 232.271 429.581 232.427C429.553 232.564 429.434 232.665 429.297 232.665Z" fill="#B3D2F8"/>
<path d="M430.57 230.055C430.496 230.055 430.432 230.027 430.377 229.982L427.097 227.042C426.978 226.932 426.969 226.749 427.079 226.63C427.189 226.511 427.372 226.502 427.491 226.612L430.771 229.551C430.89 229.661 430.9 229.844 430.79 229.963C430.726 230.027 430.643 230.055 430.57 230.055Z" fill="#B3D2F8"/>
<path d="M433.035 229.588C432.87 229.588 432.742 229.46 432.742 229.295V225.412C432.742 225.247 432.87 225.119 433.035 225.119C433.2 225.119 433.329 225.247 433.329 225.412V229.295C433.329 229.451 433.191 229.588 433.035 229.588Z" fill="#B3D2F8"/>
<path d="M148.439 315.687C148.439 315.559 148.448 315.43 148.448 315.302C147.468 315.806 145.819 316.493 143.675 316.685C141.842 316.85 140.33 316.593 139.323 316.346C139.268 316.603 139.213 316.868 139.148 317.125C140.294 317.299 141.98 317.436 143.968 317.115C145.901 316.813 147.413 316.2 148.439 315.687Z" fill="#B3D2F8"/>
<path d="M180.681 315.064C180.681 314.936 180.672 314.808 180.672 314.68C181.68 315.183 183.329 315.843 185.445 316.062C187.434 316.264 189.074 316.008 190.146 315.751C190.136 315.989 190.136 316.227 190.127 316.475C188.964 316.676 187.214 316.832 185.143 316.502C183.228 316.182 181.707 315.568 180.681 315.064Z" fill="#B3D2F8"/>
<path d="M220.252 315.229C220.252 315.156 220.261 315.073 220.261 315C219.4 315.339 218.163 315.723 216.633 315.852C215.048 315.989 213.729 315.806 212.812 315.614C212.812 315.778 212.822 315.952 212.822 316.117C213.82 316.273 215.222 316.392 216.881 316.154C218.264 315.962 219.409 315.577 220.252 315.229Z" fill="#7355A1"/>
<path d="M231.998 314.231C231.98 314.14 231.962 314.048 231.943 313.956C232.832 314.167 234.243 314.414 236.002 314.268C237.642 314.14 238.952 313.718 239.786 313.389C239.814 313.563 239.832 313.728 239.86 313.901C238.934 314.204 237.532 314.561 235.81 314.616C234.206 314.68 232.896 314.451 231.998 314.231Z" fill="#7355A1"/>
<path d="M423.9 134.707H416.698V126.768H410.266V134.707H402.771V141.136H410.266V147.894H416.698V141.136H423.9V134.707Z" fill="url(#paint2_linear_65_32)"/>
<path d="M90.5795 264.451H86.9879V260.495H83.7811V264.451H80.043V267.656H83.7811V271.026H86.9879V267.656H90.5795V264.451Z" fill="#FC6964"/>
<path d="M246.62 236.401C247.004 236.337 247.362 236.236 247.691 236.117C247.655 235.705 247.618 235.302 247.582 234.89C247.517 234.899 247.389 234.908 247.243 234.927C247.243 234.927 246.656 234.991 246.171 235.037C245.657 235.082 243.788 235.064 241.287 234.927C242.093 235.513 244.164 236.813 246.62 236.401Z" fill="#EBBCD5"/>
<path d="M192.215 228.736C193.25 228.91 194.56 229.24 195.98 229.854C197.062 230.321 197.969 230.843 198.692 231.337C198.601 231.062 198.436 230.669 198.124 230.284C197.804 229.89 197.282 229.442 195.66 228.947C194.872 228.709 193.745 228.443 192.334 228.333C192.288 228.462 192.251 228.599 192.215 228.736Z" fill="#EBBCD5"/>
<path d="M164.902 213.196C165.012 213.379 165.15 213.544 165.315 213.682C163.977 214.79 162.795 216.063 161.613 217.335C161.366 217.601 161.119 217.876 160.862 218.141C160.88 218.123 160.486 217.812 160.486 217.748C160.486 217.61 160.798 217.308 160.88 217.207C161.164 216.841 161.458 216.484 161.76 216.136C162.365 215.449 163.015 214.799 163.702 214.185C164.087 213.837 164.49 213.508 164.902 213.196Z" fill="#EBBCD5"/>
<path d="M99.0993 259.716H108.152V291.511H96.9004V261.914C96.9096 260.705 97.8899 259.716 99.0993 259.716Z" fill="#FF707F" stroke="white" stroke-miterlimit="10"/>
<path d="M119.404 259.716H108.152V291.511H119.404V259.716Z" fill="#FF707F" stroke="white" stroke-miterlimit="10"/>
<path opacity="0.2" d="M398.987 84.414C398.547 82.3444 400.828 80.2291 402.862 80.8243C402.413 77.8756 403.357 74.6613 405.62 72.7199C407.883 70.7785 411.475 70.403 413.893 72.1521C414.581 70.7693 416.166 69.8994 417.696 70.0551C419.226 70.2107 420.609 71.3829 421.003 72.8756C422.552 70.7785 425.896 70.3023 427.967 71.8957C430.037 73.4891 430.44 76.8408 428.8 78.8737C430.898 79.4781 432.374 81.6759 432.172 83.8554L398.987 84.414Z" fill="#A6CAFC"/>
<path opacity="0.2" d="M261.966 76.4743C261.05 72.1702 265.805 67.7655 270.029 69.0109C269.085 62.8845 271.046 56.1904 275.755 52.1611C280.455 48.1318 287.932 47.3442 292.953 50.9798C294.373 48.1135 297.671 46.2911 300.86 46.6116C304.048 46.9321 306.916 49.3772 307.731 52.4724C310.956 48.1043 317.91 47.1244 322.207 50.4395C326.505 53.7545 327.338 60.7233 323.939 64.9541C328.3 66.1995 331.361 70.7874 330.948 75.3021L261.966 76.4743Z" fill="#A6CAFC"/>
<path opacity="0.2" d="M365.858 45.9892C364.997 42.7658 364.392 39.231 365.72 36.1632C367.104 32.9672 370.32 30.9617 373.563 29.6888C378.557 27.72 385.126 27.4452 388.424 31.6669C391.723 35.8793 389.945 41.9782 387.93 46.9324C391.145 45.9526 394.783 49.3683 394.004 52.6467C396.258 51.383 399.3 51.7493 401.196 53.5075C403.084 55.2658 403.597 58.242 402.497 60.5771C390.605 60.5771 378.712 60.5771 366.82 60.5771C363.054 60.5771 356.512 61.8866 352.93 60.5771C341.468 56.4013 364.621 41.383 365.858 45.9892Z" fill="#A6CAFC"/>
<path opacity="0.2" d="M71.6225 91.8504C68.6447 89.2863 68.544 85.2204 70.4955 83.279C71.8423 81.9328 74.1787 81.6215 76.3318 82.4182C74.8842 78.1325 75.5714 73.3431 77.4038 69.2039C79.3462 64.8083 82.9653 60.7332 87.7204 60.0006C92.4756 59.2588 97.8813 63.2882 97.1575 68.0409C98.5227 67.4182 100.3 67.8394 101.225 69.0208C102.16 70.2021 102.16 72.0244 101.235 73.2057C102.774 73.105 104.432 73.2057 105.651 74.149C106.869 75.0922 107.309 77.1343 106.173 78.1691C109.884 74.6984 116.197 74.4695 120.155 77.6563C124.113 80.8523 125.331 87.1343 122.711 91.4933C105.669 91.6123 88.6458 91.7314 71.6225 91.8504Z" fill="#A6CAFC"/>
<path opacity="0.2" d="M130.489 18.068C130.37 18.3245 130.26 18.5809 130.141 18.8373C129.673 17.8483 130.058 16.5387 130.983 15.9527C131.909 15.3757 133.256 15.5955 133.943 16.4472C132.908 13.7732 133.567 10.4124 135.821 8.63581C138.075 6.85925 141.822 7.19808 143.426 9.56987C143.05 6.39222 144.278 2.94899 146.917 1.14496C149.555 -0.659067 153.587 -0.356869 155.584 2.14313C157.022 3.95632 157.215 6.51126 156.647 8.7457C156.079 10.9801 154.833 12.9856 153.605 14.9453C154.466 14.1486 155.813 13.9288 156.885 14.3959C157.957 14.8629 158.708 15.9984 158.717 17.1706C158.855 17.5461 158.186 18.0039 157.911 17.7201L130.489 18.068Z" fill="#A6CAFC"/>
<path opacity="0.2" d="M42.0931 130.568C42.0015 130.77 41.9099 130.971 41.8182 131.173C41.4518 130.394 41.7541 129.36 42.4779 128.902C43.2109 128.444 44.2737 128.618 44.8143 129.295C43.9988 127.189 44.5211 124.543 46.2894 123.142C48.0669 121.741 51.0262 122.006 52.2906 123.874C51.9974 121.374 52.9595 118.654 55.0484 117.235C57.1283 115.816 60.3075 116.054 61.8834 118.023C63.0195 119.451 63.1753 121.466 62.7172 123.233C62.2682 125.001 61.2879 126.576 60.3259 128.123C61.0039 127.501 62.0667 127.317 62.9096 127.693C63.7617 128.059 64.3481 128.957 64.3572 129.882C64.4672 130.175 63.9358 130.532 63.7159 130.321L42.0931 130.568Z" fill="#A6CAFC"/>
<path d="M385.694 212.903H370.924C368.258 212.903 366.096 210.742 366.096 208.077V204.57C366.096 201.905 368.258 199.744 370.924 199.744H385.694C388.36 199.744 390.522 201.905 390.522 204.57V208.077C390.522 210.742 388.36 212.903 385.694 212.903Z" fill="white"/>
<path d="M370.557 208.976V203.673H371.638V208.023H373.58V208.976H370.557Z" fill="#203765"/>
<path d="M376.622 203.663H378.665L379.856 208.965H378.775L378.564 208.004H376.704L376.493 208.965H375.412L376.622 203.663ZM376.924 207.079H378.372L377.831 204.561H377.455L376.924 207.079Z" fill="#203765"/>
<path d="M384.291 203.663C385.363 203.663 385.949 204.057 385.949 205.064C385.949 205.669 385.784 205.971 385.363 206.236C385.812 206.429 386.05 206.758 386.05 207.445C386.05 208.507 385.39 208.965 384.327 208.965H382.211V203.663H384.291ZM383.283 204.588V205.852H384.245C384.666 205.852 384.85 205.632 384.85 205.211C384.85 204.771 384.639 204.588 384.236 204.588H383.283ZM383.283 206.758V208.05H384.263C384.712 208.05 384.95 207.921 384.95 207.39C384.95 206.951 384.694 206.749 384.263 206.749H383.283V206.758Z" fill="#203765"/>
</g>
<defs>
<linearGradient id="paint0_linear_65_32" x1="497.142" y1="135.482" x2="-88.7282" y2="276.805" gradientUnits="userSpaceOnUse">
<stop stop-color="#FBDDD0"/>
<stop offset="1" stop-color="#FC6964"/>
</linearGradient>
<linearGradient id="paint1_linear_65_32" x1="192.274" y1="-31.6514" x2="325.384" y2="377.509" gradientUnits="userSpaceOnUse">
<stop stop-color="#FBDDD0"/>
<stop offset="1" stop-color="#FC6964"/>
</linearGradient>
<linearGradient id="paint2_linear_65_32" x1="430.252" y1="93.3416" x2="400.272" y2="172.421" gradientUnits="userSpaceOnUse">
<stop stop-color="#FBDDD0"/>
<stop offset="1" stop-color="#FC6964"/>
</linearGradient>
<clipPath id="clip0_65_32">
<rect width="527" height="330" fill="white" transform="translate(1)"/>
</clipPath>
</defs>
</svg>
